<svg width="370" height="269" viewBox="0 0 370 269" fill="none" xmlns="http://www.w3.org/2000/svg">
<g opacity="0.3">
<path opacity="0.3" d="M359.64 199.76C358.64 215.92 358.94 212.98 359.41 214.18L359.5 214.4H347.5L260.26 214.23L123.26 213.98L43.96 213.83H18.7402C20.0302 212.71 21.0201 210.01 22.1401 207.03C23.9201 202.28 26.0302 196.81 30.2402 195.82C31.6516 195.517 33.1141 195.552 34.5098 195.92C35.6792 196.29 36.7451 196.931 37.6201 197.79C38.8201 198.89 39.8602 200.09 41.9502 200.63C43.217 201.023 44.573 201.023 45.8398 200.63C49.1798 199.4 50.2399 194.48 50.6699 192.35C52.2499 184.35 53.4801 171.88 55.3701 160.8C57.2601 149.72 59.8602 139.87 64.1802 137.61C65.8254 136.767 67.6637 136.374 69.5098 136.47C72.6698 136.47 74.8201 138.83 75.5801 139.55C82.9601 146.55 78.4998 168.19 87.3398 175.44C92.0398 179.31 99.11 177.92 103.79 176.94L105.79 176.53C127.85 171.91 249.72 146.8 277.97 159.69C279.016 160.146 280.003 160.727 280.91 161.42C281.77 162.11 284.3 164.3 287.2 164.86C288.122 165.07 289.078 165.07 290 164.86C295 163.54 295.05 156.14 301.56 151.03C303.49 149.51 307.75 146.15 312.66 146.88C313.833 147.043 314.966 147.423 316 148C322 151.47 324.6 160.7 324.78 161.38C325.78 165.05 325.51 167.65 325.4 171.06C325.4 171.86 325.33 172.93 325.3 174.21C325.11 182.72 325.3 200.21 330.84 203.13L331.25 203.32C332.94 203.97 335.03 203.32 336.87 202.32C338.167 201.571 339.341 200.626 340.35 199.52C341.502 198.178 342.299 196.569 342.67 194.84C343.31 192.44 343.67 189.97 346.28 187.31C347.706 185.714 349.637 184.655 351.75 184.31C352.953 184.112 354.187 184.272 355.3 184.77C355.931 185.082 356.506 185.498 357 186C357.108 186.113 357.208 186.234 357.3 186.36C360.23 190.18 359.64 199.76 359.64 199.76Z" fill="#8989F7"/>
</g>
<g opacity="0.3">
<path opacity="0.3" d="M369.75 214.42H359.5H347.5L260.26 214.25L123.26 214L43.9604 213.85H18.7407H16.0503H5.33057H0.220703C0.580703 210.49 1.82072 204.05 6.74072 199.43C8.12072 198.14 10.0105 196.43 12.5005 196.52C15.9405 196.65 18.4106 200.18 18.8506 200.81C20.8506 203.7 20.1206 205.46 22.1406 207.09H22.2007C23.6211 208.1 25.3541 208.571 27.0903 208.42C30.9103 208.16 33.4506 205.04 34.6006 203.58C35.9667 201.867 36.9857 199.903 37.6006 197.8C38.9506 193.32 38.6507 188.46 40.4507 181.8C41.4507 178.11 45.4506 163.14 54.9106 160.91C55.0506 160.91 55.2006 160.84 55.3506 160.82C59.6806 159.97 65.2307 161.42 68.2407 164.98C72.9607 170.54 68.6207 177.84 74.1807 184.64C75.8745 186.586 77.9779 188.133 80.3403 189.17C86.0603 191.53 95.2707 186.54 105.721 176.55C113.352 169.058 120.306 160.907 126.5 152.19C201.15 130.19 261.98 131.91 277.76 159.45C277.813 159.533 277.86 159.62 277.9 159.71C281.84 166.89 280.31 176.77 281.9 176.81C283.1 176.81 284.9 171.46 287.11 164.88C289.55 157.7 292.561 149.09 296.041 144.47C297.548 142.248 299.76 140.599 302.32 139.79C304.087 139.327 305.944 139.327 307.71 139.79C309.313 140.237 310.81 141.002 312.11 142.04C313.54 143.23 314.45 144.89 315.11 147.67C315.94 151.02 316.43 156 317.11 163.67C317.65 170.1 317.941 174.14 320.201 174.96C320.671 175.13 321.1 175.88 325.26 174.27C327.08 173.56 329.01 172.88 331.26 173.81C332.729 174.439 333.966 175.508 334.8 176.87C336.23 179.22 335.6 181.33 335.69 184.06C335.81 187.57 337.181 193.59 340.121 194.86C340.916 195.18 341.805 195.18 342.601 194.86C346.741 193.46 351.671 186.15 357.201 186.42C357.538 186.434 357.873 186.481 358.201 186.56C361.611 187.32 363.461 190.8 365.141 193.93C370.001 202.63 367 212.25 369.75 214.42Z" fill="#9CDAF4"/>
</g>
<g opacity="0.3">
<path opacity="0.3" d="M122.891 214L43.8906 213.85C44.8906 208.71 49.5106 203.07 54.3706 202.41C59.2306 201.75 60.6506 206.31 67.5806 206.86C72.3706 207.25 76.0504 205.43 81.8604 202.56C90.4604 198.32 90.0506 196.11 96.4106 193.36C98.6406 192.36 110.48 187.27 116.88 192.42C119.93 194.87 120.601 199.03 121.951 207.32C122.321 209.79 122.681 212 122.891 214Z" fill="#ED9DF6"/>
</g>
<path d="M162.991 19.7101H162.981C162.368 19.7101 161.871 20.207 161.871 20.8201V55.5701C161.871 56.1831 162.368 56.6801 162.981 56.6801H162.991C163.604 56.6801 164.101 56.1831 164.101 55.5701V20.8201C164.101 20.207 163.604 19.7101 162.991 19.7101Z" fill="#8989F7"/>
<path d="M142.071 50.74H142.061C141.448 50.74 140.951 51.2369 140.951 51.85V66.61C140.951 67.223 141.448 67.72 142.061 67.72H142.071C142.684 67.72 143.181 67.223 143.181 66.61V51.85C143.181 51.2369 142.684 50.74 142.071 50.74Z" fill="#8989F7"/>
<path d="M308.001 111.41H307.991C307.378 111.41 306.881 111.907 306.881 112.52V127.15C306.881 127.763 307.378 128.26 307.991 128.26H308.001C308.614 128.26 309.111 127.763 309.111 127.15V112.52C309.111 111.907 308.614 111.41 308.001 111.41Z" fill="#8989F7"/>
<path d="M297.62 101.08H297.61C296.997 101.08 296.5 101.577 296.5 102.19V111.43C296.5 112.043 296.997 112.54 297.61 112.54H297.62C298.233 112.54 298.73 112.043 298.73 111.43V102.19C298.73 101.577 298.233 101.08 297.62 101.08Z" fill="#8989F7"/>
<path d="M63.96 61.8101H63.9502C63.3372 61.8101 62.8398 62.307 62.8398 62.92V81.0101C62.8398 81.6231 63.3372 82.1201 63.9502 82.1201H63.96C64.573 82.1201 65.0698 81.6231 65.0698 81.0101V62.92C65.0698 62.307 64.573 61.8101 63.96 61.8101Z" fill="#8989F7"/>
<path d="M176.59 33.3301H176.58C176.216 33.3301 175.92 33.6255 175.92 33.9901V41.79C175.92 42.1545 176.216 42.4501 176.58 42.4501H176.59C176.954 42.4501 177.25 42.1545 177.25 41.79V33.9901C177.25 33.6255 176.954 33.3301 176.59 33.3301Z" fill="#8989F7"/>
<path d="M281.9 104.51H281.891C281.526 104.51 281.23 104.806 281.23 105.17V116.25C281.23 116.615 281.526 116.91 281.891 116.91H281.9C282.265 116.91 282.561 116.615 282.561 116.25V105.17C282.561 104.806 282.265 104.51 281.9 104.51Z" fill="#8989F7"/>
<path d="M43.8506 121.66C43.8506 117.369 40.3718 113.89 36.0806 113.89C31.7893 113.89 28.3105 117.369 28.3105 121.66V152.56C28.3105 156.851 31.7893 160.33 36.0806 160.33C40.3718 160.33 43.8506 156.851 43.8506 152.56V121.66Z" fill="#FF5367"/>
<path d="M338.37 94.4601C338.37 90.1688 334.891 86.6901 330.6 86.6901C326.309 86.6901 322.83 90.1688 322.83 94.4601V125.36C322.83 129.651 326.309 133.13 330.6 133.13C334.891 133.13 338.37 129.651 338.37 125.36V94.4601Z" fill="#00D3B8"/>
<path d="M179.88 268.86C195.603 268.86 208.35 261.334 208.35 252.05C208.35 242.766 195.603 235.24 179.88 235.24C164.156 235.24 151.41 242.766 151.41 252.05C151.41 261.334 164.156 268.86 179.88 268.86Z" fill="#93C6D9"/>
<g opacity="0.5">
<path opacity="0.5" d="M178.2 249.51C183.552 249.51 187.89 246.649 187.89 243.12C187.89 239.591 183.552 236.73 178.2 236.73C172.849 236.73 168.51 239.591 168.51 243.12C168.51 246.649 172.849 249.51 178.2 249.51Z" fill="black"/>
</g>
<path d="M186.35 244.1C185.691 244.943 184.85 245.627 183.89 246.1C180.29 247.98 176.5 246.44 175.75 246.1C174.736 245.77 173.814 245.205 173.06 244.45C172.21 243.53 171.81 242.45 171.49 237.95C171.314 235.621 171.267 233.284 171.35 230.95C171.35 229.95 171.46 228.8 171.56 227.61C171.79 224.92 171.98 224.61 172.18 224.31C174.61 220.97 184.33 221.97 186.88 226.65C187.32 227.46 187.15 227.65 187.23 231.46C187.23 231.85 187.23 232.28 187.23 232.74C187.46 239.8 188 241.92 186.35 244.1Z" fill="#93C6D9"/>
<path d="M277.55 208.61C277.47 209.743 277.38 210.893 277.28 212.06C277 215.54 276.5 220.64 272.84 224.8C267.08 231.33 257.271 231.29 253.231 231.29C207.351 231.42 161.46 227.35 115.61 229.05C110.39 229.25 97.0705 229.95 90.3605 221.7C86.5305 217 86.4105 211.32 86.3605 208.47C86.3605 206.86 86.2408 205.26 86.1608 203.66C84.9008 178.73 80.3206 154.83 81.6906 126.85C81.7804 123.936 82.4006 121.062 83.5206 118.37C86.2506 111.95 91.3507 108.37 93.7907 106.68C97.7561 103.949 102.211 102.006 106.911 100.96C138.061 94.54 188.221 100.41 220.541 99.28C227.851 99.02 233.541 99.67 244.971 100.96C246.971 101.18 258.34 102.45 267.28 107.8C269.8 109.593 271.944 111.862 273.59 114.48C277.87 120.99 278.081 127.82 278.141 131.22C278.451 147.32 278.251 162.7 278.221 166.93C278.111 178.08 278.81 190.9 277.55 208.61Z" fill="#9CDAF4"/>
<path d="M263.21 208.51C263.14 209.51 263.06 210.45 262.98 211.45C262.73 214.45 262.3 218.77 259.1 222.32C254.1 227.89 245.52 227.86 241.99 227.87C201.99 227.97 161.92 224.5 121.92 225.95C117.37 226.12 105.75 226.72 99.9199 219.67C96.5799 215.67 96.4799 210.82 96.3999 208.39C96.3532 207.017 96.2935 205.647 96.2202 204.28C95.1202 183.01 91.1301 162.62 92.3301 138.74C92.4012 136.248 92.9405 133.792 93.9199 131.5C96.2999 126.02 100.75 122.96 102.92 121.5C106.391 119.167 110.273 117.511 114.36 116.62C141.54 111.14 185.31 116.15 213.51 115.19C219.88 114.97 224.86 115.52 234.82 116.62C236.53 116.81 246.49 117.89 254.28 122.46C256.475 123.977 258.349 125.914 259.79 128.16C262.504 132.421 263.896 137.389 263.79 142.44C264.06 156.18 263.88 169.31 263.86 172.92C263.7 182.46 264.31 193.39 263.21 208.51Z" fill="#A0F5FF"/>
<g opacity="0.5">
<path opacity="0.5" d="M187.23 230.84C179.45 231.84 174.651 231.56 171.351 230.32C171.351 229.75 171.35 229.15 171.44 228.53C176.7 228.68 181.951 228.86 187.201 229.04C187.211 229.53 187.21 230.12 187.23 230.84Z" fill="black"/>
</g>
<path d="M277.55 208.61C277.47 209.743 277.38 210.894 277.28 212.06C277 215.54 276.5 220.64 272.84 224.8C267.08 231.33 257.27 231.29 253.23 231.29C207.35 231.42 161.46 227.35 115.61 229.05C110.39 229.25 97.0699 229.95 90.3599 221.7C86.5299 217 86.4099 211.32 86.3599 208.47C86.3599 206.86 86.2402 205.26 86.1602 203.66L277.55 208.61Z" fill="#93C6D9"/>
<path d="M178.201 222.39C181.36 222.39 183.92 220.331 183.92 217.79C183.92 215.25 181.36 213.19 178.201 213.19C175.042 213.19 172.48 215.25 172.48 217.79C172.48 220.331 175.042 222.39 178.201 222.39Z" fill="#B1EEFF"/>
<path d="M175.351 218.45L177.181 217.45L177.971 217.01C178.631 216.69 178.671 216.63 178.081 216.84L176.641 214.94C176.331 216.19 175.021 217.36 174.371 218.47C173.551 219.86 175.131 221.11 176.421 220.47C177.001 220.166 177.565 219.832 178.111 219.47C178.321 219.35 179.601 218.85 179.221 218.78L178.111 217.33C178.111 217.04 177.661 217.98 177.641 218.02C177.437 218.41 177.263 218.814 177.121 219.23C176.701 220.39 178.291 221.72 179.331 220.92C180.371 220.12 181.681 219.18 182.921 218.39C184.531 217.39 183.031 214.74 181.401 215.8C180.171 216.59 178.971 217.44 177.811 218.33L180.011 220.03C180.361 219.03 181.081 218.38 181.111 217.33C181.109 217.003 181.002 216.685 180.803 216.425C180.604 216.165 180.326 215.977 180.011 215.89C178.091 215.55 176.541 217.12 174.911 217.89L176.961 219.89C177.781 218.51 179.141 217.24 179.531 215.65C179.588 215.427 179.595 215.194 179.549 214.969C179.503 214.743 179.407 214.531 179.267 214.348C179.128 214.165 178.948 214.016 178.743 213.912C178.537 213.809 178.311 213.753 178.081 213.75C176.641 213.75 175.081 215.11 173.841 215.75C173.512 215.958 173.277 216.285 173.185 216.662C173.093 217.039 173.151 217.438 173.347 217.773C173.543 218.109 173.86 218.355 174.234 218.461C174.608 218.567 175.008 218.523 175.351 218.34V218.45Z" fill="#97D1E0"/>
<path d="M142.76 161.8L140.21 176.38C140.07 177.1 139.79 177.33 139.05 177.33H136.52C135.77 177.33 135.52 177.1 135.7 176.38L136.28 173.06C136.668 170.943 137.366 168.895 138.35 166.98H138.12C137.75 167.74 136.54 169.85 135.89 170.81L134.12 173.43C134.003 173.65 133.824 173.831 133.606 173.95C133.387 174.069 133.138 174.121 132.89 174.1H131.38C130.76 174.1 130.57 173.94 130.38 173.43L129.49 170.81C129.129 169.555 128.865 168.275 128.7 166.98H128.5C128.762 169.009 128.715 171.065 128.36 173.08L127.8 176.38C127.794 176.522 127.759 176.661 127.696 176.788C127.633 176.915 127.544 177.027 127.434 177.117C127.324 177.207 127.197 177.272 127.06 177.309C126.923 177.346 126.78 177.353 126.64 177.33H124.18C123.43 177.33 123.25 177.1 123.36 176.38L125.94 161.8C126.08 161.05 126.36 160.8 127.1 160.8H129.26C130.07 160.8 130.33 160.94 130.52 161.52L133 169.14L138.16 161.54C138.288 161.278 138.497 161.064 138.757 160.93C139.016 160.797 139.312 160.751 139.6 160.8H142C142.69 160.82 142.9 161.05 142.76 161.8Z" fill="black"/>
<path d="M156.86 161.82L156.491 163.91C156.351 164.65 156.05 164.91 155.33 164.91H149.201L148.82 166.98H153.721C154.471 166.98 154.65 167.23 154.54 167.98L154.17 170.07C154.03 170.81 153.75 171.07 153 171.07H148.1L147.71 173.3H154.05C154.77 173.3 154.98 173.53 154.84 174.3L154.471 176.42C154.351 177.14 154.05 177.42 153.31 177.42H143.39C142.65 177.42 142.39 177.17 142.58 176.42L145.13 161.88C145.27 161.16 145.55 160.88 146.29 160.88H156C156.77 160.84 157 161.1 156.86 161.82Z" fill="black"/>
<path d="M163.41 161.82L161.41 173.27H167C167.74 173.27 167.95 173.5 167.81 174.27L167.44 176.39C167.3 177.11 167.02 177.39 166.28 177.39H157C156.26 177.39 156.08 177.14 156.19 176.39L158.77 161.85C158.89 161.13 159.16 160.85 159.91 160.85H162.53C163.31 160.84 163.52 161.1 163.41 161.82Z" fill="black"/>
<path d="M183.461 161.34L176.281 170.75L175.281 176.33C175.284 176.48 175.253 176.629 175.191 176.765C175.129 176.902 175.036 177.022 174.921 177.119C174.806 177.215 174.671 177.283 174.525 177.32C174.38 177.357 174.228 177.36 174.081 177.33H171.351C170.611 177.33 170.351 177.07 170.541 176.33L171.541 170.75L167.711 161.34C167.471 160.79 167.631 160.34 168.381 160.34H171.151C172.351 160.34 172.691 160.34 173.001 161.22L174.701 166.1L178.221 161.22C178.791 160.38 179.151 160.34 180.321 160.34H183.121C183.871 160.34 183.891 160.79 183.461 161.34Z" fill="black"/>
<path d="M199.56 160.53L199.15 162.8C199.03 163.6 198.7 163.88 197.9 163.88H194.17L191.99 176.28C191.84 177.06 191.53 177.28 190.73 177.28H187.89C187.08 177.28 186.89 177.01 187.01 176.28L189.19 163.88H185.45C184.64 163.88 184.45 163.6 184.57 162.8L184.97 160.53C185.12 159.75 185.42 159.53 186.23 159.53H198.68C199.48 159.48 199.71 159.75 199.56 160.53Z" fill="black"/>
<path d="M202.601 158.25H205.771C206.571 158.25 206.771 158.52 206.651 159.33L203.651 176.26C203.654 176.418 203.621 176.575 203.556 176.719C203.491 176.863 203.395 176.99 203.274 177.093C203.154 177.195 203.012 177.269 202.859 177.31C202.706 177.351 202.547 177.358 202.391 177.33H199.221C198.411 177.33 198.221 177.06 198.331 176.26L201.331 159.33C201.491 158.52 201.791 158.25 202.601 158.25Z" fill="black"/>
<path d="M227.201 157.7L219.791 166.7L224.271 176.08C224.601 176.73 224.33 177.31 223.42 177.31H219.701C218.181 177.31 217.861 177.22 217.451 176.23L215.51 171.42L212 176.23C211.29 177.14 211 177.31 209.36 177.31H205.721C204.821 177.31 204.721 176.78 205.311 176.08L212.991 166.7L208.831 157.7C208.541 157.05 208.831 156.53 209.621 156.53H213.11C214.6 156.53 214.981 156.64 215.371 157.53L217.21 162.04L220.61 157.53C221.34 156.53 221.701 156.53 223.041 156.53H226.82C227.64 156.53 227.731 157.05 227.201 157.7Z" fill="black"/>
<path d="M151.471 158.81C143.937 158.81 135.824 158.617 127.13 158.23C126.939 158.236 126.749 158.202 126.572 158.131C126.395 158.06 126.234 157.953 126.099 157.817C125.965 157.681 125.861 157.519 125.792 157.34C125.723 157.162 125.692 156.971 125.701 156.78C125.709 156.59 125.756 156.403 125.84 156.231C125.924 156.059 126.042 155.906 126.188 155.783C126.333 155.659 126.503 155.566 126.685 155.511C126.868 155.455 127.061 155.438 127.25 155.46C179.72 157.75 209.25 153.31 229.11 140.11C229.261 139.991 229.435 139.905 229.621 139.857C229.807 139.809 230.001 139.8 230.191 139.83C230.38 139.861 230.562 139.93 230.723 140.034C230.884 140.138 231.023 140.275 231.129 140.435C231.235 140.595 231.306 140.775 231.339 140.965C231.372 141.154 231.366 141.348 231.32 141.535C231.274 141.721 231.19 141.896 231.073 142.048C230.956 142.201 230.809 142.327 230.64 142.42C213.58 153.75 189.831 158.81 151.471 158.81Z" fill="black"/>
<path d="M207.29 148.79H203.94C203.652 148.768 203.363 148.83 203.11 148.97C202.894 149.113 202.738 149.33 202.67 149.58L201.85 154.24C201.7 155.09 201.93 155.37 202.78 155.37H206.13C206.98 155.37 207.32 155.09 207.46 154.24L208.23 149.9C208.235 149.857 208.235 149.813 208.23 149.77C208.37 149 208.1 148.79 207.29 148.79Z" fill="#FF3568"/>
<path d="M292.67 160.36C292.671 157.328 292.075 154.326 290.916 151.525C289.757 148.723 288.057 146.178 285.914 144.034C283.77 141.889 281.226 140.188 278.425 139.028C275.624 137.867 272.622 137.27 269.59 137.27V160.36H292.67Z" fill="#ED9DF6"/>
<path d="M269.59 160.36V137.27C265.023 137.268 260.558 138.621 256.759 141.156C252.961 143.692 250 147.298 248.251 151.517C246.501 155.736 246.043 160.379 246.933 164.859C247.823 169.338 250.021 173.453 253.25 176.684C256.478 179.914 260.593 182.114 265.072 183.006C269.551 183.897 274.194 183.441 278.414 181.693C282.634 179.946 286.24 176.987 288.778 173.189C291.316 169.392 292.67 164.927 292.67 160.36H269.59Z" fill="#00B9D5"/>
<path d="M290.911 73.9301L246.911 23.1L237.51 32.3901L227.901 21.7801L195.851 59.8901L184.851 39.8901L179.771 49.42C179.711 49.5303 179.611 49.613 179.491 49.6503C179.372 49.6877 179.242 49.6768 179.131 49.6201C179.02 49.5587 178.937 49.4566 178.9 49.3354C178.862 49.2142 178.874 49.0832 178.931 48.97L184.84 37.8901L196.001 58.2101L227.86 20.3301L237.53 31.0201L246.951 21.7101L290.82 72.4001L312.191 43.0001C312.266 42.8982 312.379 42.8304 312.505 42.8117C312.631 42.793 312.758 42.8248 312.86 42.9001C312.911 42.9367 312.953 42.9828 312.985 43.0359C313.018 43.089 313.039 43.1479 313.048 43.2092C313.057 43.2706 313.055 43.3332 313.04 43.3934C313.025 43.4536 312.998 43.5103 312.961 43.5601L290.911 73.9301Z" fill="#FF5367"/>
<path d="M179.491 50.9301C180.48 50.9301 181.281 50.1287 181.281 49.1401C181.281 48.1515 180.48 47.3501 179.491 47.3501C178.503 47.3501 177.701 48.1515 177.701 49.1401C177.701 50.1287 178.503 50.9301 179.491 50.9301Z" fill="white"/>
<path d="M179.491 51.3301C179.058 51.3301 178.634 51.2017 178.274 50.961C177.914 50.7204 177.633 50.3783 177.467 49.9782C177.302 49.578 177.258 49.1377 177.343 48.7129C177.427 48.288 177.636 47.8978 177.942 47.5915C178.248 47.2852 178.639 47.0767 179.064 46.9922C179.488 46.9077 179.929 46.951 180.329 47.1168C180.729 47.2825 181.071 47.5632 181.312 47.9234C181.552 48.2835 181.681 48.707 181.681 49.1401C181.678 49.7201 181.446 50.2756 181.036 50.6858C180.626 51.0959 180.071 51.3275 179.491 51.3301ZM179.491 47.7401C179.214 47.7401 178.943 47.8222 178.713 47.976C178.483 48.1299 178.303 48.3485 178.197 48.6043C178.091 48.8602 178.063 49.1417 178.117 49.4132C178.171 49.6848 178.305 49.9342 178.501 50.13C178.696 50.3258 178.946 50.4592 179.217 50.5132C179.489 50.5672 179.771 50.5395 180.026 50.4335C180.282 50.3275 180.501 50.1481 180.655 49.9179C180.809 49.6876 180.891 49.417 180.891 49.1401C180.891 48.7688 180.743 48.4127 180.481 48.1501C180.218 47.8876 179.862 47.7401 179.491 47.7401Z" fill="#FF5367"/>
<path d="M227.98 23.06C228.969 23.06 229.771 22.2586 229.771 21.27C229.771 20.2814 228.969 19.48 227.98 19.48C226.992 19.48 226.19 20.2814 226.19 21.27C226.19 22.2586 226.992 23.06 227.98 23.06Z" fill="white"/>
<path d="M228.001 23.4601C227.567 23.4601 227.144 23.3317 226.784 23.091C226.424 22.8504 226.143 22.5083 225.977 22.1082C225.811 21.708 225.768 21.2677 225.853 20.8429C225.937 20.418 226.146 20.0278 226.452 19.7215C226.759 19.4152 227.149 19.2067 227.573 19.1222C227.998 19.0377 228.438 19.081 228.838 19.2468C229.239 19.4125 229.581 19.6932 229.821 20.0534C230.062 20.4135 230.191 20.837 230.191 21.2701C230.191 21.8509 229.96 22.4079 229.549 22.8186C229.138 23.2293 228.581 23.4601 228.001 23.4601ZM228.001 19.8701C227.724 19.8701 227.453 19.9522 227.223 20.106C226.993 20.2599 226.813 20.4785 226.707 20.7343C226.601 20.9902 226.574 21.2717 226.628 21.5432C226.682 21.8148 226.815 22.0642 227.011 22.26C227.207 22.4558 227.456 22.5892 227.728 22.6432C227.999 22.6972 228.28 22.6695 228.536 22.5635C228.792 22.4575 229.011 22.2781 229.165 22.0479C229.319 21.8176 229.401 21.547 229.401 21.2701C229.401 20.8988 229.253 20.5427 228.99 20.2801C228.728 20.0176 228.372 19.8701 228.001 19.8701Z" fill="#FF5367"/>
<path d="M247.03 24.35C248.018 24.35 248.82 23.5486 248.82 22.56C248.82 21.5714 248.018 20.77 247.03 20.77C246.041 20.77 245.24 21.5714 245.24 22.56C245.24 23.5486 246.041 24.35 247.03 24.35Z" fill="white"/>
<path d="M247.001 24.7501C246.567 24.7501 246.144 24.6217 245.784 24.381C245.424 24.1404 245.143 23.7983 244.977 23.3982C244.811 22.998 244.768 22.5577 244.853 22.1329C244.937 21.708 245.146 21.3178 245.452 21.0115C245.759 20.7052 246.149 20.4967 246.573 20.4122C246.998 20.3277 247.438 20.371 247.838 20.5368C248.239 20.7025 248.581 20.9833 248.821 21.3434C249.062 21.7036 249.191 22.127 249.191 22.5601C249.188 23.1401 248.957 23.6956 248.547 24.1058C248.136 24.5159 247.581 24.7475 247.001 24.7501ZM247.001 21.1601C246.724 21.1601 246.453 21.2422 246.223 21.396C245.993 21.5499 245.813 21.7685 245.707 22.0243C245.601 22.2801 245.574 22.5617 245.628 22.8332C245.682 23.1048 245.815 23.3542 246.011 23.55C246.207 23.7458 246.456 23.8792 246.728 23.9332C246.999 23.9872 247.28 23.9595 247.536 23.8536C247.792 23.7476 248.011 23.5681 248.165 23.3379C248.319 23.1076 248.401 22.837 248.401 22.5601C248.401 22.1888 248.253 21.8327 247.99 21.5702C247.728 21.3076 247.372 21.1601 247.001 21.1601Z" fill="#FF5367"/>
<path d="M312.55 45.1C313.538 45.1 314.34 44.2986 314.34 43.31C314.34 42.3214 313.538 41.52 312.55 41.52C311.561 41.52 310.76 42.3214 310.76 43.31C310.76 44.2986 311.561 45.1 312.55 45.1Z" fill="white"/>
<path d="M312.55 45.5001C312.117 45.5001 311.694 45.3717 311.334 45.131C310.974 44.8904 310.693 44.5483 310.527 44.1482C310.362 43.748 310.318 43.3077 310.402 42.8829C310.487 42.458 310.696 42.0678 311.002 41.7615C311.308 41.4552 311.698 41.2467 312.123 41.1622C312.548 41.0777 312.988 41.121 313.389 41.2868C313.789 41.4525 314.131 41.7333 314.372 42.0934C314.612 42.4536 314.741 42.877 314.741 43.3101C314.741 43.8909 314.51 44.448 314.099 44.8587C313.688 45.2694 313.131 45.5001 312.55 45.5001ZM312.55 41.9201C312.201 41.9497 311.875 42.1096 311.638 42.3679C311.4 42.6262 311.269 42.9643 311.269 43.3151C311.269 43.6659 311.4 44.004 311.638 44.2623C311.875 44.5207 312.201 44.6805 312.55 44.7101C312.743 44.7265 312.938 44.7025 313.122 44.6399C313.305 44.5772 313.473 44.4771 313.616 44.346C313.758 44.2149 313.873 44.0555 313.951 43.8781C314.029 43.7006 314.069 43.5089 314.069 43.3151C314.069 43.1213 314.029 42.9296 313.951 42.7521C313.873 42.5747 313.758 42.4154 313.616 42.2842C313.473 42.1531 313.305 42.053 313.122 41.9903C312.938 41.9277 312.743 41.9037 312.55 41.9201Z" fill="#FF5367"/>
<path d="M284.371 39.3801H201.61V85.6601H284.371V39.3801Z" fill="#A5E8FF"/>
<path d="M283.57 33.22H202.42C200.195 33.22 198.391 35.0243 198.391 37.25V37.26C198.391 39.4857 200.195 41.29 202.42 41.29H283.57C285.796 41.29 287.601 39.4857 287.601 37.26V37.25C287.601 35.0243 285.796 33.22 283.57 33.22Z" fill="#9CDAF4"/>
<path d="M270.501 38.7101C271.307 38.7101 271.961 38.0564 271.961 37.2501C271.961 36.4437 271.307 35.79 270.501 35.79C269.695 35.79 269.041 36.4437 269.041 37.2501C269.041 38.0564 269.695 38.7101 270.501 38.7101Z" fill="#000624"/>
<path d="M275.911 38.7101C276.717 38.7101 277.371 38.0564 277.371 37.2501C277.371 36.4437 276.717 35.79 275.911 35.79C275.105 35.79 274.451 36.4437 274.451 37.2501C274.451 38.0564 275.105 38.7101 275.911 38.7101Z" fill="#000624"/>
<path d="M281.331 38.7101C282.137 38.7101 282.791 38.0564 282.791 37.2501C282.791 36.4437 282.137 35.79 281.331 35.79C280.525 35.79 279.871 36.4437 279.871 37.2501C279.871 38.0564 280.525 38.7101 281.331 38.7101Z" fill="#FF5367"/>
<path d="M222.601 49.7001H224.291C225.416 49.7001 226.494 50.1468 227.289 50.942C228.084 51.7371 228.531 52.8155 228.531 53.9401V75.35H218.371V53.9401C218.371 52.8173 218.816 51.7403 219.609 50.9454C220.402 50.1506 221.478 49.7027 222.601 49.7001Z" fill="#007FD6"/>
<path d="M218.001 55.1001C219.031 55.1001 220.017 55.5089 220.745 56.2366C221.473 56.9642 221.881 57.9511 221.881 58.9801V75.3401H214.111V59.0001C214.111 57.9711 214.52 56.9842 215.248 56.2565C215.976 55.5289 216.963 55.1201 217.992 55.1201L218.001 55.1001Z" fill="#EEDD15"/>
<path d="M246.491 75.3401H236.331V53.9301C236.331 52.8056 236.778 51.7271 237.573 50.9319C238.368 50.1368 239.446 49.6901 240.571 49.6901H242.261C243.385 49.6901 244.464 50.1368 245.259 50.9319C246.054 51.7271 246.501 52.8056 246.501 53.9301V75.3401H246.491Z" fill="#007FD6"/>
<path d="M250.73 75.3401H242.96V58.98C242.96 58.4705 243.061 57.966 243.256 57.4952C243.451 57.0245 243.736 56.5968 244.097 56.2365C244.457 55.8762 244.885 55.5904 245.355 55.3954C245.826 55.2004 246.331 55.1 246.84 55.1C247.869 55.1 248.856 55.5089 249.584 56.2365C250.312 56.9642 250.721 57.951 250.721 58.98V75.3401H250.73Z" fill="#EEDD15"/>
<path d="M266.852 75.3401H256.691V53.9301C256.691 52.8056 257.138 51.7271 257.934 50.9319C258.729 50.1368 259.807 49.6901 260.932 49.6901H262.622C263.746 49.6901 264.824 50.1368 265.62 50.9319C266.415 51.7271 266.861 52.8056 266.861 53.9301V75.3401H266.852Z" fill="#007FD6"/>
<path d="M271.111 75.3401H263.341V58.98C263.341 57.951 263.75 56.9642 264.478 56.2365C265.205 55.5089 266.192 55.1 267.221 55.1C267.731 55.1 268.235 55.2004 268.706 55.3954C269.177 55.5904 269.605 55.8762 269.965 56.2365C270.325 56.5968 270.611 57.0245 270.806 57.4952C271.001 57.966 271.101 58.4705 271.101 58.98V75.3401H271.111Z" fill="#EEDD15"/>
<path d="M275.301 75.6601H210.681C210.635 75.6683 210.588 75.6664 210.542 75.6544C210.497 75.6423 210.455 75.6205 210.419 75.5905C210.384 75.5605 210.354 75.5229 210.334 75.4805C210.315 75.4381 210.305 75.3919 210.305 75.3451C210.305 75.2983 210.315 75.2521 210.334 75.2097C210.354 75.1673 210.384 75.1298 210.419 75.0997C210.455 75.0697 210.497 75.0479 210.542 75.0359C210.588 75.0239 210.635 75.0219 210.681 75.0302H275.301C275.347 75.0219 275.394 75.0239 275.439 75.0359C275.485 75.0479 275.527 75.0697 275.562 75.0997C275.598 75.1298 275.628 75.1673 275.647 75.2097C275.667 75.2521 275.677 75.2983 275.677 75.3451C275.677 75.3919 275.667 75.4381 275.647 75.4805C275.628 75.5229 275.598 75.5605 275.562 75.5905C275.527 75.6205 275.485 75.6423 275.439 75.6544C275.394 75.6664 275.347 75.6683 275.301 75.6601Z" fill="black"/>
<path d="M136.081 6.26001H71.9004V70.15H136.081V6.26001Z" fill="#A5E8FF"/>
<path d="M135.26 0.0900879H72.7207C70.495 0.0900879 68.6904 1.89435 68.6904 4.12006V4.13007C68.6904 6.35577 70.495 8.16003 72.7207 8.16003H135.26C137.486 8.16003 139.291 6.35577 139.291 4.13007V4.12006C139.291 1.89435 137.486 0.0900879 135.26 0.0900879Z" fill="#9CDAF4"/>
<path d="M122.2 5.59009C123.007 5.59009 123.66 4.9364 123.66 4.13007C123.66 3.32373 123.007 2.67004 122.2 2.67004C121.394 2.67004 120.74 3.32373 120.74 4.13007C120.74 4.9364 121.394 5.59009 122.2 5.59009Z" fill="#000624"/>
<path d="M127.62 5.59009C128.426 5.59009 129.08 4.9364 129.08 4.13007C129.08 3.32373 128.426 2.67004 127.62 2.67004C126.814 2.67004 126.16 3.32373 126.16 4.13007C126.16 4.9364 126.814 5.59009 127.62 5.59009Z" fill="#000624"/>
<path d="M133.03 5.59009C133.837 5.59009 134.491 4.9364 134.491 4.13007C134.491 3.32373 133.837 2.67004 133.03 2.67004C132.224 2.67004 131.57 3.32373 131.57 4.13007C131.57 4.9364 132.224 5.59009 133.03 5.59009Z" fill="#FF5367"/>
<path d="M120.37 41.0901C120.37 45.3191 119.116 49.453 116.766 52.9692C114.416 56.4853 111.077 59.2257 107.169 60.8436C103.262 62.4615 98.963 62.8843 94.8154 62.0585C90.6678 61.2328 86.8583 59.1955 83.8686 56.2045C80.879 53.2134 78.8433 49.4029 78.0195 45.2549C77.1957 41.107 77.6205 36.8079 79.2402 32.9014C80.86 28.9949 83.6019 25.6564 87.1191 23.3083C90.6364 20.9603 94.771 19.7081 99 19.7101V18.0701C94.451 18.0701 90.004 19.419 86.2217 21.9463C82.4393 24.4736 79.4918 28.0657 77.751 32.2684C76.0102 36.4711 75.5544 41.0956 76.4419 45.5571C77.3293 50.0187 79.5197 54.1169 82.7363 57.3335C85.9529 60.5501 90.0511 62.7407 94.5127 63.6281C98.9742 64.5156 103.599 64.0601 107.802 62.3193C112.004 60.5785 115.597 57.6305 118.124 53.8482C120.651 50.0659 122 45.619 122 41.0701L120.37 41.0901Z" fill="#93C6D9"/>
<path d="M111.311 55.87C108.388 58.3062 104.808 59.8209 101.024 60.2226C97.2399 60.6243 93.4221 59.895 90.0527 58.1269C86.6832 56.3587 83.9135 53.6311 82.0942 50.289C80.2749 46.9469 79.4875 43.1404 79.8315 39.3508C80.1755 35.5612 81.6354 31.9587 84.0268 28.9988C86.4182 26.0389 89.6338 23.8546 93.2666 22.7221C96.8993 21.5895 100.786 21.5596 104.436 22.6361C108.086 23.7127 111.334 25.8473 113.771 28.77L114.911 27.82C112.287 24.6717 108.789 22.3721 104.858 21.2121C100.928 20.0521 96.7416 20.0837 92.8291 21.303C88.9165 22.5223 85.4531 24.8745 82.8774 28.062C80.3016 31.2496 78.729 35.1294 78.3584 39.2108C77.9877 43.2922 78.836 47.3918 80.7954 50.9912C82.7547 54.5906 85.7372 57.5282 89.3662 59.4323C92.9951 61.3365 97.1073 62.1218 101.183 61.6888C105.258 61.2559 109.113 59.6241 112.261 57L111.311 55.87Z" fill="#00B9D5"/>
<path d="M115.57 36.07C116.566 39.3493 116.567 42.8503 115.572 46.1299C114.578 49.4096 112.632 52.3204 109.982 54.4941C107.333 56.6677 104.098 58.0064 100.687 58.3408C97.2761 58.6751 93.843 57.9899 90.8217 56.3721C87.8004 54.7543 85.3268 52.2766 83.7143 49.2524C82.1018 46.2283 81.4228 42.7938 81.7631 39.3836C82.1034 35.9734 83.4477 32.7407 85.6259 30.0948C87.8042 27.449 90.7186 25.5089 94 24.52L93.6098 23.24C90.0791 24.3079 86.9444 26.3988 84.602 29.2484C82.2596 32.0979 80.8151 35.5781 80.4506 39.2487C80.0862 42.9194 80.8183 46.6157 82.5546 49.8702C84.291 53.1247 86.9532 55.7912 90.205 57.5325C93.4569 59.2738 97.1525 60.0117 100.824 59.6529C104.495 59.2941 107.977 57.8546 110.83 55.5166C113.683 53.1786 115.779 50.047 116.853 46.5179C117.926 42.9888 117.928 39.2206 116.86 35.69L115.57 36.07Z" fill="#FF5367"/>
<path d="M112 49.66C110.305 52.2326 107.886 54.2449 105.047 55.4425C102.209 56.6402 99.0785 56.9693 96.0529 56.3885C93.0274 55.8077 90.2422 54.3429 88.049 52.1793C85.8558 50.0157 84.3531 47.2504 83.7311 44.2331C83.1092 41.2157 83.3959 38.0817 84.5549 35.2271C85.7138 32.3726 87.6926 29.9258 90.2419 28.1959C92.7912 26.466 95.7964 25.5307 98.8771 25.5083C101.958 25.4859 104.976 26.3774 107.55 28.07L108.21 27.07C105.438 25.245 102.187 24.2831 98.8683 24.3058C95.5495 24.3286 92.3119 25.335 89.5651 27.1978C86.8183 29.0606 84.6856 31.6961 83.4367 34.771C82.1878 37.846 81.8785 41.2222 82.5485 44.4727C83.2185 47.7233 84.8373 50.7022 87.2004 53.0327C89.5634 55.3632 92.5649 56.9406 95.8244 57.5654C99.0839 58.1902 102.456 57.8344 105.513 56.5429C108.57 55.2515 111.176 53.0824 113 50.31L112 49.66Z" fill="#6161B2"/>
<path d="M124.101 22.35C124.763 22.35 125.3 21.8128 125.3 21.1501C125.3 20.4873 124.763 19.9501 124.101 19.9501C123.438 19.9501 122.9 20.4873 122.9 21.1501C122.9 21.8128 123.438 22.35 124.101 22.35Z" fill="#007FD6"/>
<path d="M127.901 22.35C128.564 22.35 129.101 21.8128 129.101 21.1501C129.101 20.4873 128.564 19.9501 127.901 19.9501C127.238 19.9501 126.701 20.4873 126.701 21.1501C126.701 21.8128 127.238 22.35 127.901 22.35Z" fill="#007FD6"/>
<path d="M131.71 22.35C132.373 22.35 132.91 21.8128 132.91 21.1501C132.91 20.4873 132.373 19.9501 131.71 19.9501C131.047 19.9501 130.51 20.4873 130.51 21.1501C130.51 21.8128 131.047 22.35 131.71 22.35Z" fill="#007FD6"/>
<path d="M124.101 25.73C124.763 25.73 125.3 25.1928 125.3 24.5301C125.3 23.8673 124.763 23.3301 124.101 23.3301C123.438 23.3301 122.9 23.8673 122.9 24.5301C122.9 25.1928 123.438 25.73 124.101 25.73Z" fill="#007FD6"/>
<path d="M127.901 25.73C128.564 25.73 129.101 25.1928 129.101 24.5301C129.101 23.8673 128.564 23.3301 127.901 23.3301C127.238 23.3301 126.701 23.8673 126.701 24.5301C126.701 25.1928 127.238 25.73 127.901 25.73Z" fill="#007FD6"/>
<path d="M131.71 25.73C132.373 25.73 132.91 25.1928 132.91 24.5301C132.91 23.8673 132.373 23.3301 131.71 23.3301C131.047 23.3301 130.51 23.8673 130.51 24.5301C130.51 25.1928 131.047 25.73 131.71 25.73Z" fill="#007FD6"/>
<path d="M124.101 29.1C124.763 29.1 125.3 28.5628 125.3 27.9001C125.3 27.2373 124.763 26.7001 124.101 26.7001C123.438 26.7001 122.9 27.2373 122.9 27.9001C122.9 28.5628 123.438 29.1 124.101 29.1Z" fill="#007FD6"/>
<path d="M127.901 29.1C128.564 29.1 129.101 28.5628 129.101 27.9001C129.101 27.2373 128.564 26.7001 127.901 26.7001C127.238 26.7001 126.701 27.2373 126.701 27.9001C126.701 28.5628 127.238 29.1 127.901 29.1Z" fill="#007FD6"/>
<path d="M131.71 29.1C132.373 29.1 132.91 28.5628 132.91 27.9001C132.91 27.2373 132.373 26.7001 131.71 26.7001C131.047 26.7001 130.51 27.2373 130.51 27.9001C130.51 28.5628 131.047 29.1 131.71 29.1Z" fill="#007FD6"/>
<path d="M127.9 23.3L126.851 25.1401H128.96L127.9 23.3Z" fill="#007FD6"/>
<path d="M93.1904 114.55C97.0619 114.55 100.201 111.412 100.201 107.54C100.201 103.669 97.0619 100.53 93.1904 100.53C89.3189 100.53 86.1807 103.669 86.1807 107.54C86.1807 111.412 89.3189 114.55 93.1904 114.55Z" fill="#8989F7"/>
<path d="M93.1906 114.79C91.7543 114.79 90.3505 114.364 89.1564 113.566C87.9623 112.768 87.0313 111.633 86.4821 110.306C85.9329 108.979 85.79 107.519 86.071 106.11C86.3519 104.701 87.0444 103.408 88.0607 102.393C89.0771 101.378 90.3715 100.687 91.7805 100.408C93.1894 100.129 94.6493 100.275 95.9758 100.826C97.3022 101.377 98.4356 102.309 99.2321 103.504C100.029 104.699 100.453 106.104 100.451 107.54C100.448 109.464 99.6817 111.308 98.3205 112.667C96.9593 114.027 95.1143 114.79 93.1906 114.79ZM93.1906 100.79C91.8536 100.79 90.5469 101.186 89.4352 101.929C88.3236 102.672 87.4567 103.728 86.945 104.963C86.4334 106.198 86.2999 107.558 86.5607 108.869C86.8216 110.18 87.4654 111.385 88.4108 112.33C89.3562 113.276 90.5605 113.919 91.8718 114.18C93.1831 114.441 94.5423 114.307 95.7775 113.795C97.0128 113.284 98.0684 112.417 98.8112 111.306C99.554 110.194 99.9509 108.887 99.9509 107.55C99.9522 106.662 99.7783 105.781 99.4391 104.96C99.1 104.139 98.6022 103.392 97.9743 102.764C97.3464 102.135 96.6008 101.636 95.78 101.296C94.9592 100.955 94.0792 100.78 93.1906 100.78V100.79Z" fill="#8989F7"/>
<path d="M112.881 110V105.1L107.881 104.55C107.761 103.967 107.604 103.393 107.411 102.83L111.511 99.8301L109.061 95.5801L104.411 97.5801C104.016 97.1355 103.595 96.7148 103.151 96.3201L105.201 91.6701L100.961 89.2201L97.9609 93.3201C97.3975 93.1318 96.8234 92.9781 96.2412 92.8601L95.6909 87.8601H90.7808L90.231 92.8601C89.6509 92.9734 89.0796 93.1272 88.521 93.3201L85.521 89.2201L81.2808 91.6701L83.3311 96.3201C82.8897 96.7148 82.4722 97.1356 82.0811 97.5801L77.4209 95.5201L74.9712 99.7701L79.0708 102.77C78.88 103.329 78.7264 103.901 78.6108 104.48L73.5508 105.03V109.93L78.6011 110.48C78.7212 111.063 78.8779 111.637 79.0708 112.2L74.9609 115.2L77.4111 119.45L82.0708 117.45C82.4621 117.891 82.8795 118.309 83.3208 118.7L81.271 123.36L85.521 125.81L88.521 121.71C89.081 121.898 89.652 122.052 90.231 122.17L90.7808 127.23H95.6909L96.2412 122.23C96.8223 122.107 97.3962 121.954 97.9609 121.77L100.961 125.87L105.211 123.41L103.161 118.76C103.602 118.369 104.02 117.951 104.411 117.51L109.071 119.51L111.521 115.26L107.421 112.26C107.614 111.697 107.771 111.123 107.891 110.54L112.881 110ZM93.1909 118.24C91.0742 118.24 89.0049 117.612 87.2451 116.436C85.4853 115.26 84.1143 113.588 83.3047 111.633C82.4951 109.677 82.2836 107.525 82.6973 105.449C83.1109 103.373 84.131 101.467 85.6284 99.9705C87.1258 98.4745 89.0336 97.4562 91.1099 97.0445C93.1861 96.6328 95.3375 96.8461 97.2925 97.6575C99.2475 98.4689 100.918 99.8419 102.093 101.603C103.267 103.364 103.893 105.433 103.891 107.55C103.89 108.954 103.612 110.344 103.073 111.64C102.535 112.937 101.747 114.114 100.753 115.106C99.7593 116.098 98.5802 116.884 97.2827 117.42C95.9852 117.956 94.5947 118.231 93.1909 118.23V118.24Z" fill="#8989F7"/>
<path d="M95.6401 127.48H90.73C90.6687 127.478 90.6107 127.453 90.5664 127.411C90.5222 127.368 90.4951 127.311 90.4902 127.25L89.96 122.38C89.4867 122.279 89.0195 122.152 88.5601 122L85.6699 126C85.6322 126.049 85.5786 126.083 85.5181 126.096C85.4576 126.109 85.3942 126.099 85.3399 126.07L81.0899 123.62C81.0365 123.589 80.997 123.538 80.9785 123.479C80.96 123.42 80.9643 123.356 80.9902 123.3L82.9902 118.81C82.6369 118.483 82.3036 118.15 81.9902 117.81L77.5 119.81C77.4452 119.836 77.3827 119.839 77.3252 119.821C77.2677 119.802 77.2196 119.763 77.1899 119.71L74.73 115.46C74.7005 115.406 74.6913 115.343 74.7041 115.282C74.7169 115.222 74.7508 115.168 74.7998 115.13L78.7998 112.23C78.6498 111.76 78.5302 111.3 78.4302 110.84L73.5498 110.31C73.4888 110.303 73.4327 110.273 73.3921 110.227C73.3515 110.181 73.3296 110.122 73.3301 110.06V105.16C73.3296 105.099 73.3515 105.039 73.3921 104.993C73.4327 104.947 73.4888 104.917 73.5498 104.91L78.4302 104.38C78.5314 103.91 78.6581 103.446 78.8101 102.99L74.8101 100.09C74.7618 100.054 74.7282 100.002 74.7153 99.9431C74.7025 99.8843 74.7114 99.8229 74.7402 99.7701L77.1899 95.5201C77.2214 95.4666 77.2709 95.4261 77.3296 95.4059C77.3883 95.3857 77.4521 95.3872 77.5098 95.41L82 97.41C82.3162 97.06 82.6499 96.7262 83 96.41L81 91.9201C80.9741 91.8638 80.9698 91.7999 80.9883 91.7408C81.0068 91.6817 81.0468 91.6315 81.1001 91.6L85.3501 89.1501C85.4039 89.1185 85.4677 89.1081 85.5288 89.121C85.5899 89.134 85.6438 89.1693 85.6802 89.22L88.5698 93.1701C89.0498 93.0201 89.51 92.9001 89.96 92.8001L90.5 87.9301C90.505 87.8699 90.5327 87.8139 90.5772 87.7731C90.6216 87.7324 90.6799 87.7099 90.7402 87.7101H95.6499C95.7113 87.7096 95.7708 87.7318 95.8169 87.7724C95.863 87.813 95.8925 87.8691 95.8999 87.9301L96.4302 92.8001C96.8802 92.9001 97.3498 93.0201 97.8198 93.1701L100.72 89.22C100.756 89.1718 100.808 89.1382 100.867 89.1254C100.925 89.1125 100.987 89.1213 101.04 89.1501L105.29 91.6101C105.343 91.6397 105.382 91.688 105.401 91.7455C105.419 91.8029 105.416 91.8653 105.39 91.9201L103.39 96.41C103.743 96.73 104.077 97.0634 104.39 97.41L108.87 95.41C108.928 95.3872 108.992 95.3857 109.05 95.4059C109.109 95.4261 109.159 95.4666 109.19 95.5201L111.64 99.7601C111.67 99.8144 111.679 99.8775 111.666 99.9379C111.653 99.9984 111.619 100.052 111.57 100.09L107.62 102.98C107.769 103.44 107.893 103.907 107.99 104.38L112.86 104.91C112.922 104.915 112.979 104.944 113.021 104.991C113.062 105.037 113.083 105.098 113.08 105.16V110.06C113.083 110.122 113.062 110.183 113.021 110.229C112.979 110.276 112.922 110.305 112.86 110.31L107.99 110.84C107.89 111.3 107.77 111.76 107.62 112.24L111.56 115.13C111.613 115.165 111.65 115.219 111.663 115.281C111.676 115.342 111.664 115.407 111.63 115.46L109.18 119.7C109.149 119.754 109.099 119.794 109.041 119.814C108.982 119.834 108.918 119.833 108.86 119.81L104.38 117.81C104.06 118.16 103.71 118.51 103.38 118.81L105.38 123.29C105.403 123.348 105.404 123.412 105.384 123.47C105.364 123.529 105.324 123.579 105.27 123.61L101 126C100.974 126.017 100.946 126.028 100.916 126.034C100.886 126.039 100.855 126.039 100.825 126.032C100.795 126.026 100.768 126.013 100.743 125.996C100.718 125.978 100.696 125.956 100.68 125.93L97.7798 121.93C97.3098 122.08 96.8501 122.21 96.3901 122.31L95.8599 127.17C95.867 127.205 95.8672 127.241 95.8599 127.276C95.8525 127.311 95.838 127.344 95.8174 127.373C95.7968 127.402 95.7703 127.426 95.7398 127.445C95.7092 127.463 95.6755 127.475 95.6401 127.48ZM90.96 126.98H95.4102L95.9399 122.15C95.9453 122.097 95.9679 122.047 96.0039 122.007C96.0399 121.968 96.0876 121.941 96.1401 121.93C96.7122 121.815 97.2766 121.665 97.8301 121.48C97.8801 121.462 97.9347 121.461 97.9854 121.477C98.036 121.493 98.0798 121.526 98.1099 121.57L100.98 125.49L104.84 123.26L102.84 118.82C102.816 118.772 102.809 118.717 102.82 118.665C102.831 118.612 102.859 118.565 102.9 118.53C103.338 118.142 103.752 117.728 104.14 117.29C104.175 117.253 104.22 117.227 104.271 117.216C104.321 117.205 104.373 117.21 104.42 117.23L108.87 119.23L111.1 115.37L107.18 112.5C107.139 112.468 107.108 112.424 107.092 112.374C107.076 112.324 107.075 112.27 107.09 112.22C107.282 111.668 107.436 111.103 107.55 110.53C107.563 110.479 107.591 110.433 107.63 110.397C107.669 110.361 107.718 110.338 107.77 110.33L112.59 109.81V105.35L107.77 104.83C107.716 104.826 107.665 104.805 107.625 104.768C107.586 104.732 107.559 104.683 107.55 104.63C107.435 104.058 107.285 103.494 107.1 102.94C107.082 102.89 107.081 102.835 107.097 102.785C107.113 102.734 107.146 102.69 107.19 102.66L111.1 99.79L108.88 95.9301L104.43 97.9301C104.381 97.9508 104.327 97.9561 104.275 97.9454C104.224 97.9347 104.177 97.9084 104.14 97.8701C103.756 97.4322 103.345 97.0181 102.91 96.6301C102.869 96.5954 102.841 96.548 102.83 96.4954C102.819 96.4429 102.826 96.3882 102.85 96.3401L104.8 91.9001L100.95 89.6701L98.0801 93.5901C98.0471 93.6306 98.0028 93.6605 97.9531 93.6765C97.9034 93.6925 97.8502 93.6937 97.7998 93.6801C97.2471 93.49 96.6826 93.3364 96.1099 93.22C96.0567 93.2112 96.008 93.1847 95.9717 93.1448C95.9354 93.1049 95.9139 93.0539 95.9102 93.0001L95.3799 88.1801H91L90.4702 93.0001C90.4665 93.0539 90.4445 93.1049 90.4082 93.1448C90.3719 93.1847 90.3232 93.2112 90.27 93.22C89.7003 93.3351 89.1388 93.4888 88.5899 93.6801C88.5395 93.6937 88.4862 93.6925 88.4365 93.6765C88.3868 93.6605 88.343 93.6306 88.3101 93.5901L85.4302 89.66L81.5801 91.8901L83.5801 96.3401C83.6011 96.3895 83.6054 96.4444 83.5928 96.4966C83.5802 96.5489 83.5511 96.5957 83.5098 96.6301C83.0831 97.0234 82.6731 97.4334 82.2798 97.8601C82.2451 97.901 82.1981 97.9293 82.1455 97.9401C82.0929 97.951 82.0383 97.9439 81.9902 97.9201L77.54 95.9201L75.3101 99.7801L79.2402 102.65C79.2807 102.683 79.3107 102.727 79.3267 102.777C79.3426 102.826 79.3438 102.88 79.3301 102.93C79.1401 103.483 78.9864 104.047 78.8701 104.62C78.8583 104.672 78.8308 104.719 78.7915 104.755C78.7522 104.79 78.7026 104.813 78.6499 104.82L73.8198 105.34V109.8L78.6499 110.33C78.7018 110.335 78.7511 110.356 78.7905 110.39C78.83 110.424 78.8578 110.469 78.8701 110.52C78.9851 111.092 79.1351 111.657 79.3198 112.21C79.338 112.26 79.3391 112.315 79.3228 112.365C79.3065 112.416 79.2739 112.46 79.23 112.49L75.3101 115.36L77.54 119.22L81.9902 117.22C82.0389 117.199 82.0927 117.194 82.1445 117.205C82.1964 117.215 82.2433 117.242 82.2798 117.28C82.6617 117.72 83.0726 118.135 83.5098 118.52C83.5485 118.554 83.5756 118.6 83.5864 118.65C83.5972 118.701 83.5912 118.753 83.5698 118.8L81.5698 123.26L85.4302 125.48L88.2998 121.56C88.3328 121.52 88.3771 121.49 88.4268 121.474C88.4765 121.458 88.5297 121.456 88.5801 121.47C89.129 121.661 89.69 121.815 90.2598 121.93C90.313 121.939 90.3617 121.965 90.398 122.005C90.4342 122.045 90.4562 122.096 90.46 122.15L90.96 126.98ZM93.1899 118.48C91.026 118.47 88.9135 117.819 87.1191 116.61C85.3248 115.4 83.9292 113.686 83.1084 111.684C82.2876 109.681 82.0784 107.481 82.5073 105.36C82.9363 103.239 83.9842 101.292 85.5186 99.7662C87.0529 98.2403 89.0051 97.2031 91.1284 96.7858C93.2518 96.3684 95.451 96.5896 97.4487 97.4213C99.4465 98.2531 101.153 99.6582 102.353 101.459C103.553 103.26 104.192 105.376 104.19 107.54C104.174 110.447 103.008 113.23 100.947 115.279C98.8861 117.329 96.097 118.48 93.1899 118.48ZM93.1899 97.0901C91.1231 97.0901 89.1028 97.7029 87.3843 98.8512C85.6658 99.9995 84.3266 101.632 83.5357 103.541C82.7447 105.451 82.5377 107.552 82.9409 109.579C83.3441 111.606 84.3393 113.468 85.8008 114.929C87.2622 116.391 89.1243 117.386 91.1514 117.789C93.1785 118.192 95.2795 117.986 97.189 117.195C99.0985 116.404 100.731 115.064 101.879 113.346C103.027 111.627 103.64 109.607 103.64 107.54C103.637 104.769 102.535 102.113 100.576 100.154C98.617 98.1946 95.9606 97.0927 93.1899 97.0901Z" fill="#8989F7"/>
<path d="M123.242 95.1939C126.468 94.5355 128.554 91.4087 127.901 88.2099C127.248 85.0112 124.104 82.9519 120.878 83.6103C117.652 84.2686 115.566 87.3953 116.219 90.594C116.872 93.7927 120.016 95.8522 123.242 95.1939Z" fill="#6161B2"/>
<path d="M121 100.77C119.576 100.772 118.194 100.283 117.088 99.3849C115.983 98.4868 115.221 97.2348 114.931 95.84C114.676 94.6363 114.784 93.3839 115.242 92.2419C115.7 91.0999 116.487 90.1197 117.503 89.4258C118.519 88.7319 119.719 88.3554 120.95 88.3443C122.18 88.3331 123.386 88.6877 124.415 89.363C125.443 90.0384 126.248 91.0041 126.727 92.1376C127.205 93.2711 127.336 94.5213 127.103 95.7295C126.871 96.9377 126.284 98.0495 125.418 98.9238C124.553 99.7981 123.447 100.395 122.241 100.64C121.833 100.727 121.417 100.771 121 100.77ZM115.42 95.77C115.637 96.8802 116.178 97.9009 116.976 98.7029C117.774 99.5048 118.792 100.052 119.901 100.274C121.01 100.497 122.16 100.385 123.205 99.9535C124.25 99.5216 125.144 98.7889 125.772 97.8485C126.401 96.908 126.736 95.8021 126.735 94.671C126.734 93.5399 126.397 92.4346 125.767 91.4953C125.136 90.556 124.241 89.825 123.195 89.395C122.149 88.965 120.999 88.8553 119.891 89.08C118.411 89.3746 117.108 90.2448 116.27 91.4994C115.432 92.754 115.126 94.2901 115.42 95.77Z" fill="#6161B2"/>
<path d="M137.86 93.3101L137.03 89.2501L132.74 89.6501C132.542 89.1865 132.314 88.7356 132.06 88.3001L134.97 85.1301L132.22 82.0302L128.69 84.5101C128.285 84.2116 127.864 83.9346 127.43 83.6801L128.36 79.4901L124.36 78.1701L122.55 82.0701C122.049 82.01 121.545 81.9799 121.04 81.9801L119.74 77.9001L115.65 78.7201L116.04 83.0001C115.575 83.1911 115.123 83.415 114.69 83.6701L111.49 80.7802L108.37 83.5302L110.86 87.0302C110.56 87.4302 110.28 87.8502 110.02 88.2802L105.8 87.3701L104.47 91.3001L108.39 93.0901C108.332 93.5881 108.298 94.0888 108.29 94.5901L104.17 95.9001L105 99.9601L109.3 99.5601C109.497 100.019 109.721 100.467 109.97 100.9L107.06 104.08L109.81 107.18L113.35 104.69C113.75 104.991 114.168 105.268 114.6 105.52L113.67 109.72L117.67 111.03L119.48 107.13C119.981 107.19 120.486 107.22 120.99 107.22L122.29 111.31L126.38 110.48L125.99 106.21C126.454 106.015 126.904 105.791 127.34 105.54L130.54 108.42L133.66 105.67L131.17 102.17C131.479 101.774 131.76 101.356 132.01 100.92L136.23 101.83L137.56 97.9001L133.65 96.1101C133.71 95.6124 133.741 95.1115 133.74 94.6101L137.86 93.3101ZM122.86 103.45C121.117 103.784 119.315 103.595 117.679 102.908C116.043 102.22 114.647 101.064 113.666 99.5855C112.685 98.1067 112.163 96.371 112.166 94.5964C112.169 92.8219 112.697 91.0878 113.682 89.6122C114.668 88.1365 116.067 86.9852 117.706 86.3029C119.344 85.6205 121.147 85.4377 122.889 85.7773C124.63 86.117 126.233 86.9638 127.495 88.2116C128.756 89.4594 129.621 91.0523 129.98 92.7901C130.213 93.9597 130.212 95.1637 129.979 96.3331C129.745 97.5025 129.282 98.6144 128.618 99.6047C127.954 100.595 127.101 101.445 126.107 102.104C125.114 102.764 124.001 103.222 122.83 103.45H122.86Z" fill="#6161B2"/>
<path d="M122.291 111.56C122.239 111.559 122.19 111.542 122.149 111.511C122.108 111.481 122.077 111.439 122.061 111.39L120.8 107.47C120.42 107.47 120.03 107.47 119.63 107.4L117.891 111.14C117.865 111.194 117.82 111.237 117.765 111.261C117.71 111.285 117.648 111.288 117.59 111.27L113.641 109.96C113.58 109.944 113.528 109.904 113.496 109.85C113.464 109.796 113.455 109.731 113.471 109.67L114.36 105.67C114.03 105.47 113.7 105.26 113.36 105.03L109.971 107.41C109.926 107.452 109.867 107.476 109.806 107.476C109.744 107.476 109.685 107.452 109.641 107.41L106.88 104.31C106.84 104.265 106.818 104.206 106.818 104.145C106.818 104.084 106.84 104.026 106.88 103.98L109.681 100.98C109.481 100.63 109.31 100.29 109.15 99.9801L105.03 100.37C104.969 100.374 104.908 100.356 104.859 100.32C104.809 100.283 104.774 100.23 104.76 100.17L104 96.0001C103.988 95.9393 103.998 95.8759 104.029 95.8222C104.061 95.7686 104.111 95.7287 104.17 95.7101L108.121 94.4601C108.124 94.0725 108.147 93.6853 108.19 93.3001L104.431 91.5801C104.376 91.5522 104.332 91.5057 104.309 91.4489C104.285 91.3922 104.282 91.3288 104.3 91.2701L105.63 87.3401C105.649 87.2813 105.69 87.2319 105.744 87.2021C105.798 87.1723 105.861 87.1644 105.92 87.1801L109.92 88.0501C110.12 87.7201 110.34 87.3901 110.57 87.0501L108.181 83.6901C108.142 83.6436 108.122 83.5853 108.122 83.5251C108.122 83.4649 108.142 83.4066 108.181 83.3601L111.311 80.6101C111.356 80.57 111.415 80.5479 111.476 80.5479C111.536 80.5479 111.595 80.57 111.641 80.6101L114.701 83.3701C115.051 83.1801 115.41 83.0001 115.75 82.8501L115.38 78.7601C115.374 78.6983 115.391 78.6364 115.428 78.5865C115.465 78.5365 115.52 78.5022 115.581 78.4901L119.67 77.6601C119.73 77.6477 119.792 77.6584 119.844 77.6899C119.896 77.7215 119.934 77.7716 119.951 77.8301L121.21 81.7401C121.59 81.7401 121.98 81.7401 122.38 81.8101L124.121 78.0801C124.145 78.0245 124.189 77.9802 124.245 77.9561C124.301 77.932 124.363 77.9299 124.42 77.9501L128.42 79.2601C128.481 79.2766 128.533 79.3161 128.565 79.3703C128.597 79.4246 128.606 79.4891 128.59 79.5501L127.701 83.5501C128.045 83.7453 128.379 83.9589 128.701 84.1901L132.081 81.8101C132.126 81.77 132.185 81.7479 132.246 81.7479C132.306 81.7479 132.365 81.77 132.411 81.8101L135.17 84.9101C135.21 84.9557 135.233 85.0144 135.233 85.0751C135.233 85.1358 135.21 85.1945 135.17 85.2401L132.38 88.2901C132.57 88.6145 132.744 88.9482 132.9 89.2901L137.021 88.9101C137.082 88.9039 137.144 88.921 137.194 88.958C137.244 88.995 137.278 89.0492 137.291 89.1101L138.11 93.1701C138.123 93.2296 138.112 93.2916 138.081 93.3436C138.049 93.3956 137.999 93.4337 137.94 93.4501L134 94.7101C134 95.0801 134 95.4801 133.92 95.8701L137.681 97.5901C137.735 97.6162 137.777 97.6608 137.801 97.7159C137.825 97.771 137.829 97.8328 137.811 97.8901L136.48 101.82C136.46 101.878 136.42 101.927 136.367 101.958C136.314 101.989 136.251 102.001 136.19 101.99L132.141 101.11C131.943 101.456 131.726 101.789 131.491 102.11L133.88 105.46C133.919 105.507 133.939 105.565 133.939 105.625C133.939 105.685 133.919 105.744 133.88 105.79L130.75 108.54C130.704 108.578 130.646 108.599 130.585 108.599C130.525 108.599 130.467 108.578 130.42 108.54L127.36 105.77C127.01 105.97 126.651 106.14 126.311 106.3L126.681 110.39C126.687 110.451 126.669 110.511 126.632 110.56C126.595 110.608 126.541 110.64 126.48 110.65L122.391 111.48L122.291 111.56ZM119.48 106.88C119.972 106.939 120.466 106.969 120.96 106.97C121.014 106.972 121.066 106.99 121.109 107.022C121.152 107.054 121.184 107.099 121.201 107.15L122.431 111.02L126.081 110.28L125.71 106.28C125.705 106.228 125.716 106.175 125.743 106.13C125.77 106.085 125.811 106.05 125.86 106.03C126.317 105.838 126.761 105.618 127.19 105.37C127.233 105.341 127.284 105.326 127.335 105.326C127.387 105.326 127.438 105.341 127.48 105.37L130.48 108.11L133.271 105.66L130.911 102.34C130.88 102.296 130.863 102.244 130.863 102.19C130.863 102.136 130.88 102.084 130.911 102.04C131.205 101.648 131.478 101.24 131.73 100.82C131.754 100.774 131.792 100.736 131.839 100.715C131.887 100.693 131.94 100.688 131.991 100.7L135.991 101.56L137.17 98.0601L133.46 96.3601C133.411 96.3385 133.371 96.3013 133.346 96.2542C133.32 96.2071 133.311 96.1528 133.32 96.1001C133.379 95.6123 133.41 95.1214 133.411 94.6301C133.412 94.5764 133.43 94.5245 133.462 94.4815C133.495 94.4386 133.539 94.4066 133.59 94.3901L137.491 93.1501L136.75 89.5401L132.681 89.9101C132.628 89.916 132.575 89.9045 132.53 89.8774C132.485 89.8503 132.45 89.8091 132.431 89.7601C132.233 89.3127 132.012 88.8755 131.771 88.4501C131.736 88.4075 131.718 88.3546 131.718 88.3001C131.718 88.2456 131.736 88.1927 131.771 88.1501L134.53 85.1501L132.07 82.3901L128.721 84.7401C128.678 84.7689 128.627 84.7843 128.576 84.7843C128.524 84.7843 128.474 84.7689 128.431 84.7401C128.035 84.4437 127.621 84.1731 127.19 83.9301C127.146 83.9016 127.112 83.8609 127.09 83.813C127.069 83.765 127.062 83.7119 127.07 83.6601L127.951 79.6601L124.431 78.4901L122.71 82.1901C122.689 82.2391 122.652 82.2795 122.604 82.3048C122.557 82.3302 122.503 82.3391 122.451 82.3301C121.96 82.2709 121.465 82.2408 120.971 82.2401C120.918 82.2393 120.867 82.2226 120.824 82.1923C120.781 82.162 120.749 82.1194 120.73 82.0701L119.5 78.1901L115.851 78.9401L116.221 82.9401C116.226 82.9936 116.214 83.0473 116.187 83.0939C116.16 83.1405 116.119 83.1776 116.07 83.2001C115.613 83.3897 115.169 83.6102 114.741 83.8601C114.699 83.8917 114.648 83.9088 114.596 83.9088C114.543 83.9088 114.492 83.8917 114.451 83.8601L111.451 81.1301L108.661 83.5801L111.021 86.9001C111.052 86.944 111.068 86.9964 111.068 87.0501C111.068 87.1038 111.052 87.1562 111.021 87.2001C110.723 87.5902 110.45 87.9975 110.201 88.4201C110.173 88.4651 110.132 88.5008 110.084 88.5222C110.036 88.5436 109.983 88.5498 109.931 88.5401L105.931 87.6701L104.75 91.1801L108.471 92.8801C108.516 92.9035 108.553 92.9396 108.578 92.984C108.603 93.0285 108.614 93.0793 108.61 93.1301C108.55 93.6401 108.52 94.1301 108.51 94.6001C108.509 94.6526 108.493 94.7036 108.463 94.7464C108.433 94.7893 108.39 94.822 108.34 94.8401L104.431 96.0801L105.17 99.7001L109.25 99.3201C109.303 99.3142 109.356 99.3256 109.401 99.3528C109.446 99.3799 109.481 99.4211 109.5 99.4701C109.694 99.9194 109.915 100.357 110.161 100.78C110.19 100.825 110.206 100.877 110.206 100.93C110.206 100.983 110.19 101.036 110.161 101.08L107.391 104.08L109.851 106.85L113.21 104.49C113.253 104.461 113.304 104.446 113.355 104.446C113.407 104.446 113.458 104.461 113.5 104.49C113.892 104.788 114.303 105.058 114.73 105.3C114.775 105.329 114.809 105.369 114.831 105.417C114.852 105.465 114.859 105.518 114.851 105.57L113.971 109.57L117.491 110.74L119.21 107.04C119.229 106.985 119.266 106.939 119.316 106.91C119.365 106.881 119.424 106.87 119.48 106.88ZM120.991 103.88C119.167 103.877 117.384 103.342 115.86 102.34C114.842 101.67 113.966 100.804 113.283 99.794C112.6 98.7837 112.123 97.6482 111.88 96.453C111.638 95.2578 111.634 94.0264 111.869 92.8297C112.104 91.6331 112.574 90.4946 113.25 89.4801C114.629 87.412 116.771 85.9742 119.208 85.4814C121.644 84.9885 124.176 85.4806 126.25 86.8501C127.276 87.514 128.157 88.3763 128.844 89.3861C129.531 90.3959 130.009 91.5328 130.25 92.7301C130.494 93.9324 130.498 95.171 130.262 96.3749C130.026 97.5788 129.556 98.7244 128.877 99.7461C128.198 100.768 127.324 101.646 126.305 102.329C125.287 103.013 124.143 103.489 122.94 103.73C122.3 103.846 121.651 103.899 121 103.89L120.991 103.88ZM121.081 85.8101C120.479 85.8102 119.88 85.8705 119.291 85.9901C118.152 86.2153 117.07 86.6635 116.105 87.3088C115.14 87.954 114.313 88.7838 113.67 89.7501C113.029 90.7101 112.585 91.7874 112.362 92.92C112.14 94.0525 112.143 95.218 112.373 96.3492C112.602 97.4804 113.053 98.555 113.7 99.5111C114.346 100.467 115.176 101.286 116.141 101.92C117.596 102.881 119.303 103.39 121.047 103.384C122.792 103.378 124.495 102.857 125.944 101.885C127.393 100.914 128.522 99.5365 129.19 97.9254C129.859 96.3143 130.037 94.5417 129.701 92.8301C129.474 91.6978 129.023 90.6219 128.376 89.6656C127.729 88.7092 126.898 87.8915 125.931 87.2601C124.49 86.3157 122.803 85.815 121.081 85.8201V85.8101Z" fill="#6161B2"/>
<path d="M183.69 70.1401H154.78C152.52 70.1401 150.353 71.0377 148.756 72.6356C147.158 74.2334 146.26 76.4005 146.26 78.6601V95.9201C146.259 97.2617 146.576 98.5845 147.184 99.7803C147.793 100.976 148.675 102.011 149.76 102.8C148.785 105.494 147.563 108.091 146.11 110.56C145.84 111.01 145.42 111.68 145.59 111.83C146.07 112.3 150.73 109.14 155.16 104.44H183.69C185.949 104.437 188.114 103.539 189.712 101.942C191.309 100.345 192.208 98.1789 192.21 95.9201V78.6601C192.208 76.4013 191.309 74.2357 189.712 72.6385C188.114 71.0413 185.949 70.1428 183.69 70.1401Z" fill="#00B9D5"/>
<path d="M161.431 81.42C161.431 79.708 160.043 78.3201 158.331 78.3201C156.618 78.3201 155.23 79.708 155.23 81.42V93.3201C155.23 95.0322 156.618 96.42 158.331 96.42C160.043 96.42 161.431 95.0322 161.431 93.3201V81.42Z" fill="#007FD6"/>
<path d="M174.771 82.6901C174.771 80.978 173.382 79.5901 171.67 79.5901C169.958 79.5901 168.57 80.978 168.57 82.6901V94.5901C168.57 96.3022 169.958 97.6901 171.67 97.6901C173.382 97.6901 174.771 96.3022 174.771 94.5901V82.6901Z" fill="#007FD6"/>
<path d="M185.601 80.38C185.601 78.6679 184.213 77.28 182.5 77.28C180.788 77.28 179.4 78.6679 179.4 80.38V92.28C179.4 93.9921 180.788 95.38 182.5 95.38C184.213 95.38 185.601 93.9921 185.601 92.28V80.38Z" fill="#007FD6"/>
<path d="M150.27 94.7401C150.19 94.7378 150.111 94.7167 150.039 94.6785C149.968 94.6403 149.907 94.5861 149.86 94.5201C149.786 94.4095 149.759 94.2744 149.783 94.1437C149.807 94.0129 149.882 93.8968 149.991 93.8201L160.77 86.4401L168.46 93.0301L186.58 80.3801C186.689 80.3126 186.82 80.2893 186.945 80.3153C187.071 80.3412 187.182 80.4144 187.255 80.5196C187.328 80.6248 187.358 80.754 187.338 80.8806C187.319 81.0072 187.251 81.1216 187.15 81.2001L168.4 94.3001L160.701 87.6901L150.56 94.6901C150.471 94.7344 150.37 94.7517 150.27 94.7401Z" fill="#FF5367"/>
</svg>
