<svg width="25" height="25" viewBox="0 0 25 25" fill="none" xmlns="http://www.w3.org/2000/svg">
<path d="M12.3492 0.339844C9.94614 0.339844 7.59706 1.05239 5.599 2.38745C3.60095 3.72251 2.04369 5.61997 1.12409 7.84009C0.204484 10.0602 -0.0361277 12.5032 0.432683 14.8601C0.901493 17.217 2.05867 19.3818 3.75788 21.0811C5.45709 22.7803 7.62202 23.9374 9.97889 24.4062C12.3358 24.8751 14.7787 24.6344 16.9988 23.7148C19.219 22.7952 21.1165 21.238 22.4515 19.24C23.7866 17.2419 24.4992 14.8928 24.4992 12.4897C24.4992 9.26737 23.2191 6.177 20.9406 3.89844C18.662 1.61987 15.5716 0.339844 12.3492 0.339844ZM16.2492 7.27979C16.2492 7.36979 16.2492 7.44983 16.2492 7.57983H15.9192C15.4092 7.57983 14.9192 7.57964 14.4092 7.62964C14.298 7.62832 14.1877 7.6493 14.0847 7.69092C13.9816 7.73254 13.8878 7.79418 13.8088 7.87231C13.7297 7.95045 13.6669 8.04343 13.6241 8.146C13.5813 8.24857 13.5592 8.35857 13.5592 8.46973C13.5592 9.07973 13.5592 9.67978 13.4992 10.2798C13.4992 10.4698 13.5792 10.5098 13.7492 10.4998H16.1592C16.1592 10.8498 16.0792 11.1598 16.0392 11.4998C15.9792 12.0298 15.8992 12.5498 15.8392 13.0798C15.8392 13.2598 15.7392 13.2898 15.5792 13.2898H13.8492C13.5092 13.2898 13.5092 13.2897 13.5092 13.6497V19.6497C13.5092 19.7497 13.5092 19.8597 13.5092 19.9697H10.8092C10.8092 19.8597 10.8092 19.7497 10.8092 19.6497V14.4597C10.8092 14.0897 10.8092 13.7098 10.8092 13.3298H9.65918C9.29918 13.3298 8.92919 13.3298 8.53919 13.3298V10.5999H8.83924C9.39924 10.5999 9.95923 10.5999 10.5192 10.5999C10.7692 10.5999 10.8592 10.5398 10.8592 10.2698C10.8592 9.66978 10.8592 9.05972 10.8592 8.45972C10.8361 8.01678 10.9064 7.57386 11.0657 7.15991C11.225 6.74596 11.4697 6.37029 11.7838 6.05713C12.0979 5.74397 12.4744 5.50034 12.8889 5.34229C13.3033 5.18423 13.7463 5.11518 14.1892 5.13965C14.8092 5.13965 15.4292 5.13965 16.0492 5.13965C16.2692 5.13965 16.3792 5.22974 16.3692 5.47974C16.2392 6.04974 16.2492 6.66979 16.2492 7.27979Z" fill="#8080F0"/>
</svg>
