<svg width="45" height="16" viewBox="0 0 45 16" fill="none" xmlns="http://www.w3.org/2000/svg">
<path d="M8.24944 9.33988L7.18938 15.3997C7.12938 15.6997 7.0094 15.7898 6.7094 15.7898H5.7094C5.3994 15.7898 5.30943 15.6997 5.36943 15.3997L5.60942 14.0198C5.7686 13.1384 6.05845 12.2856 6.46941 11.4898H6.36943C6.08718 12.0388 5.77672 12.5729 5.43938 13.0899L4.7094 14.1697C4.66199 14.2619 4.58812 14.3378 4.49724 14.3877C4.40637 14.4376 4.30263 14.4592 4.19939 14.4497H3.56939C3.30939 14.4497 3.23947 14.3897 3.15947 14.1697L2.78948 13.0899C2.63943 12.5656 2.52903 12.0307 2.4594 11.4898H2.37944C2.48866 12.3346 2.46836 13.1911 2.31939 14.0298L2.0894 15.3997C2.0294 15.6997 1.90942 15.7898 1.60942 15.7898H0.609424C0.309424 15.7898 0.229468 15.6997 0.279468 15.3997L1.34941 9.33988C1.40941 9.02988 1.5194 8.93974 1.8294 8.93974H2.72942C3.05942 8.93974 3.16944 8.99978 3.24944 9.23978L4.24944 12.3997L6.38945 9.24979C6.4421 9.13987 6.52921 9.05013 6.6375 8.99418C6.74579 8.93823 6.86931 8.91907 6.98943 8.93974H7.98943C8.21943 8.93974 8.30944 8.99988 8.24944 9.33988Z" fill="white"/>
<path d="M14.0998 9.35034L13.9497 10.2202C13.8897 10.5302 13.7697 10.6401 13.4697 10.6401H10.9198L10.7698 11.4902H12.7698C13.0798 11.4902 13.1598 11.6001 13.1098 11.9001L12.9497 12.7703C12.9497 13.0803 12.7797 13.1802 12.4697 13.1802H10.4697L10.2998 14.1104H12.9397C13.2297 14.1104 13.3198 14.2003 13.2598 14.5103L13.1098 15.3901C13.1098 15.6901 12.9398 15.7903 12.6298 15.7903H8.50979C8.19979 15.7903 8.10982 15.6901 8.16982 15.3901L9.22976 9.39014C9.28976 9.09014 9.40974 8.99023 9.70974 8.99023H13.7097C14.0597 9.00023 14.1498 9.05034 14.0998 9.35034Z" fill="white"/>
<path d="M16.8199 9.35034L15.98 14.1104H18.3C18.61 14.1104 18.69 14.2003 18.64 14.5103L18.48 15.3901C18.42 15.6901 18.31 15.7903 18 15.7903H14.18C13.87 15.7903 13.7899 15.6901 13.8399 15.3901L14.91 9.39014C14.91 9.09014 15.08 8.99023 15.39 8.99023H16.4699C16.7799 9.00023 16.8699 9.05034 16.8199 9.35034Z" fill="white"/>
<path d="M25.1506 9.15015L22.1506 13.0603L21.7506 15.3801C21.7502 15.4419 21.7363 15.5029 21.7097 15.5586C21.6831 15.6143 21.6446 15.6635 21.5969 15.7026C21.5492 15.7418 21.4934 15.77 21.4336 15.7852C21.3737 15.8003 21.3112 15.802 21.2506 15.7903H20.1206C19.8106 15.7903 19.7206 15.6901 19.7806 15.3801L20.1806 13.0603L18.5905 9.15015C18.4905 8.93015 18.5906 8.74023 18.8706 8.74023H20.0006C20.5006 8.74023 20.6406 8.74034 20.7606 9.10034L21.4706 11.1003L22.9306 9.10034C23.1706 8.76034 23.3206 8.74023 23.8106 8.74023H25.0006C25.3206 8.74023 25.3306 8.93015 25.1506 9.15015Z" fill="white"/>
<path d="M31.8306 8.82007L31.6707 9.76001C31.6107 10.09 31.4806 10.21 31.1406 10.21H29.6006L28.6905 15.3601C28.6902 15.4244 28.6758 15.4878 28.6482 15.5459C28.6206 15.604 28.5806 15.6555 28.531 15.6965C28.4814 15.7375 28.4235 15.767 28.3612 15.7832C28.2989 15.7994 28.2339 15.8017 28.1707 15.79H27.0006C26.6606 15.79 26.5706 15.6801 26.6306 15.3601L27.5406 10.21H26.0006C25.6706 10.21 25.5906 10.09 25.6406 9.76001L25.8107 8.82007C25.8707 8.49007 25.9906 8.37988 26.3306 8.37988H31.5006C31.8006 8.37988 31.9006 8.49007 31.8306 8.82007Z" fill="white"/>
<path d="M33.0993 7.87012H34.4094C34.7494 7.87012 34.8494 7.98007 34.7794 8.32007L33.5394 15.3201C33.5394 15.6501 33.3493 15.76 33.0193 15.76H31.6993C31.3693 15.76 31.2793 15.6501 31.3293 15.3201L32.5693 8.32007C32.6393 8.00007 32.7593 7.87012 33.0993 7.87012Z" fill="white"/>
<path d="M43.3201 7.64038L40.2402 11.3904L42.1002 15.2805C42.2302 15.5505 42.1002 15.7905 41.7502 15.7905H40.2001C39.5701 15.7905 39.4302 15.7906 39.2602 15.3406L38.4601 13.3406L37.0002 15.3406C36.7102 15.7206 36.5702 15.7905 35.9002 15.7905H34.4002C34.0202 15.7905 33.9802 15.5805 34.2202 15.2805L37.4102 11.3904L35.6802 7.64038C35.5602 7.37038 35.6802 7.15039 36.0102 7.15039H37.4601C38.0801 7.15039 38.2402 7.15057 38.4002 7.58057L39.1702 9.45044L40.5801 7.58057C40.8801 7.18057 41.0301 7.15039 41.5801 7.15039H43.1502C43.5002 7.15039 43.5301 7.37038 43.3201 7.64038Z" fill="white"/>
<path d="M11.8598 8.10025C8.73981 8.10025 5.37984 8.02026 1.75984 7.86026C1.68409 7.8577 1.60957 7.83994 1.54072 7.80825C1.47187 7.77657 1.41005 7.73155 1.35884 7.67568C1.30762 7.61982 1.26809 7.55416 1.2425 7.48281C1.21692 7.41147 1.20576 7.33584 1.20979 7.26016C1.21234 7.18441 1.22999 7.11001 1.26167 7.04116C1.29335 6.97231 1.33849 6.91049 1.39436 6.85928C1.45023 6.80806 1.51577 6.76841 1.58711 6.74282C1.65845 6.71724 1.7342 6.70608 1.80989 6.71011C23.5999 7.66011 35.8098 5.82024 44.1098 0.340236C44.1718 0.297539 44.2417 0.267671 44.3154 0.252589C44.3891 0.237507 44.465 0.237411 44.5388 0.252345C44.6125 0.267279 44.6826 0.296931 44.7446 0.339503C44.8066 0.382075 44.8594 0.436714 44.8999 0.500148C44.9428 0.562883 44.9727 0.633672 44.9879 0.708156C45.0031 0.782639 45.0033 0.859198 44.9884 0.933742C44.9734 1.00829 44.9438 1.07909 44.9011 1.14199C44.8584 1.2049 44.8036 1.2588 44.7398 1.3002C37.6598 6.0002 27.7898 8.10025 11.8598 8.10025Z" fill="white"/>
<path d="M35.0493 3.9401H33.6593C33.5371 3.92837 33.4143 3.95651 33.3093 4.02018C33.2212 4.0791 33.1572 4.16788 33.1293 4.27018L32.7793 6.20011C32.7793 6.56011 32.7793 6.67008 33.1693 6.67008H34.5593C34.9193 6.67008 35.0593 6.56011 35.1193 6.20011L35.4392 4.40006C35.4892 4.05006 35.3793 3.9401 35.0493 3.9401Z" fill="#FF3568"/>
</svg>
