<svg width="137" height="48" viewBox="0 0 137 48" fill="none" xmlns="http://www.w3.org/2000/svg">
<path d="M24.5103 28.0703L21.2903 46.4803C21.1103 47.3803 20.7603 47.6803 19.8203 47.6803H16.6303C15.6903 47.6803 15.4203 47.3803 15.6303 46.4803L16.3603 42.2903C16.8529 39.6172 17.7321 37.03 18.9703 34.6103H18.6803C17.8252 36.2664 16.8873 37.8784 15.8703 39.4403L13.6403 42.7503C13.4914 43.0285 13.2643 43.2572 12.9872 43.4082C12.71 43.5592 12.3949 43.626 12.0803 43.6003H10.1803C9.3903 43.6003 9.18029 43.4003 8.92029 42.7503L7.8103 39.4403C7.34733 37.8599 7.01291 36.2446 6.8103 34.6103H6.55029C6.88339 37.1745 6.8227 39.7745 6.3703 42.3203L5.67029 46.4803C5.6659 46.6605 5.62259 46.8376 5.54334 46.9995C5.46408 47.1614 5.35075 47.3042 5.21112 47.4182C5.07149 47.5322 4.90892 47.6146 4.73444 47.6599C4.55996 47.7051 4.37774 47.7121 4.20032 47.6803H1.10028C0.160283 47.6803 -0.0797171 47.3803 0.100283 46.4803L3.35028 28.0703C3.53028 27.1403 3.88031 26.8403 4.82031 26.8403H7.54029C8.54029 26.8403 8.89031 27.0203 9.13031 27.7503L12.2603 37.3603L18.7703 27.7803C18.9298 27.4489 19.1923 27.1782 19.5187 27.0087C19.845 26.8392 20.2175 26.7801 20.5803 26.8403H23.5803C24.4203 26.8403 24.6803 27.1403 24.5103 28.0703Z" fill="black"/>
<path d="M42.2994 28.1001L41.8295 30.7401C41.6495 31.6801 41.2694 32.0001 40.3594 32.0001H32.6295L32.1594 34.6101H38.3395C39.2795 34.6101 39.5095 34.9301 39.3395 35.8401L38.8695 38.4801C38.6895 39.4101 38.3395 39.7401 37.3995 39.7401H31.2194L30.7194 42.5501H38.7194C39.6294 42.5501 39.8894 42.8401 39.7194 43.7801L39.2495 46.4501C39.0995 47.3601 38.7195 47.6801 37.7795 47.6801H25.2994C24.3594 47.6801 24.0994 47.3601 24.2994 46.4501L27.4995 28.1001C27.6695 27.1901 28.0295 26.8701 28.9595 26.8701H41.2394C42.1794 26.8701 42.4394 27.1901 42.2994 28.1001Z" fill="black"/>
<path d="M50.56 28.1001L48 42.5501H55C55.94 42.5501 56.2 42.8401 56 43.7801L55.53 46.4501C55.35 47.3601 55 47.6801 54.07 47.6801H42.53C41.59 47.6801 41.36 47.3601 41.53 46.4501L44.78 28.1001C44.92 27.1901 45.28 26.8701 46.21 26.8701H49.53C50.44 26.8701 50.71 27.1901 50.56 28.1001Z" fill="black"/>
<path d="M75.8603 27.5005L66.8003 39.3705L65.5903 46.3705C65.4103 47.3105 65.0203 47.6405 64.0803 47.6405H60.6403C59.7003 47.6405 59.4303 47.3105 59.6403 46.3705L60.8503 39.3705L56.0003 27.5005C55.7003 26.8005 55.9103 26.2305 56.8503 26.2305H60.3503C61.8703 26.2305 62.2903 26.2905 62.6803 27.3505L64.8303 33.5105L69.2703 27.3505C69.9903 26.2905 70.4403 26.2305 71.9203 26.2305H75.4603C76.3803 26.2305 76.4103 26.8005 75.8603 27.5005Z" fill="black"/>
<path d="M96.1797 26.4797L95.6697 29.3297C95.5097 30.3297 95.0997 30.6996 94.0797 30.6996H89.3797L86.6197 46.3496C86.4297 47.3496 86.0497 47.6796 85.0397 47.6796H81.4497C80.4497 47.6796 80.1497 47.3296 80.3397 46.3496L83.0996 30.6996H78.3697C77.3697 30.6996 77.0997 30.3497 77.2597 29.3297L77.7697 26.4797C77.9597 25.4797 78.3397 25.1396 79.3597 25.1396H95.0697C96.0797 25.1396 96.3697 25.4897 96.1797 26.4797Z" fill="black"/>
<path d="M99.9998 23.5996H104C105 23.5996 105.33 23.9396 105.12 24.9596L101.36 46.3196C101.19 47.3196 100.78 47.6796 99.7698 47.6796H95.7698C94.7698 47.6796 94.4898 47.3396 94.6598 46.3196L98.4198 24.9996C98.6198 23.9396 98.9998 23.5996 99.9998 23.5996Z" fill="black"/>
<path d="M131.07 22.8999L121.71 34.2899L127.37 46.1199C127.78 46.9399 127.44 47.6799 126.3 47.6799H121.6C119.68 47.6799 119.27 47.5699 118.75 46.3099L116.31 40.2399L111.87 46.3099C110.99 47.4599 110.58 47.6799 108.55 47.6799H104C102.85 47.6799 102.74 47.0099 103.48 46.1199L113.17 34.2899L107.88 22.8999C107.51 22.0899 107.88 21.4199 108.88 21.4199H113.28C115.17 21.4199 115.65 21.5699 116.13 22.7199L118.46 28.4099L122.75 22.7199C123.67 21.4999 124.11 21.4199 125.82 21.4199H130.59C131.62 21.4199 131.73 22.0899 131.07 22.8999Z" fill="black"/>
<path d="M35.4891 24.2996C25.9891 24.2996 15.7791 24.0596 4.77914 23.5696C4.33632 23.5229 3.92793 23.3091 3.63724 22.9718C3.34654 22.6344 3.19539 22.199 3.21451 21.7541C3.23363 21.3093 3.42157 20.8884 3.74014 20.5773C4.05871 20.2662 4.4839 20.0882 4.92911 20.0796C71.1491 22.9996 108.389 17.3596 133.469 0.709612C133.659 0.563705 133.878 0.458496 134.111 0.400519C134.343 0.342541 134.586 0.333035 134.822 0.372587C135.059 0.412139 135.285 0.499906 135.486 0.630438C135.687 0.76097 135.859 0.93148 135.992 1.13138C136.125 1.33128 136.215 1.5563 136.257 1.79247C136.299 2.02864 136.292 2.27092 136.236 2.50426C136.18 2.73759 136.077 2.95701 135.933 3.14888C135.789 3.34075 135.608 3.50098 135.399 3.61961C113.879 17.9196 83.8991 24.2996 35.4891 24.2996Z" fill="black"/>
<path d="M105.939 11.6603H101.709C101.344 11.6307 100.978 11.7108 100.659 11.8903C100.386 12.0695 100.19 12.3441 100.109 12.6603L99.1091 18.5403C98.9291 19.6103 99.2091 19.9703 100.289 19.9703H104.509C105.589 19.9703 106.019 19.6103 106.199 18.5403L107.199 13.0703V12.9003C107.299 12.0003 106.999 11.6603 105.939 11.6603Z" fill="#FF3568"/>
</svg>
