<svg width="25" height="25" viewBox="0 0 25 25" fill="none" xmlns="http://www.w3.org/2000/svg">
<path d="M12.5894 9.59961C12.0989 9.59961 11.6194 9.74507 11.2115 10.0176C10.8037 10.2901 10.4859 10.6772 10.2981 11.1304C10.1104 11.5835 10.0613 12.0822 10.157 12.5632C10.2527 13.0443 10.4889 13.4864 10.8357 13.8333C11.1826 14.1801 11.6245 14.4163 12.1056 14.512C12.5867 14.6077 13.0853 14.5586 13.5384 14.3708C13.9916 14.1831 14.3789 13.8651 14.6514 13.4573C14.9239 13.0494 15.0694 12.5701 15.0694 12.0796C15.0668 11.4227 14.8046 10.7934 14.3401 10.3289C13.8756 9.86434 13.2463 9.60224 12.5894 9.59961Z" fill="#8080F0"/>
<path d="M18.5195 8.16016C18.454 7.7622 18.2897 7.38707 18.0416 7.06909C17.7936 6.75112 17.4696 6.50065 17.0995 6.34033C16.6517 6.14311 16.1688 6.03764 15.6795 6.03027C14.8595 6.03027 14.0396 6.03027 13.2096 6.03027C12.1196 6.03027 11.0195 6.03027 9.92952 6.03027C9.49611 6.0369 9.06428 6.08366 8.63954 6.17017C8.20422 6.24725 7.79814 6.44167 7.46511 6.73242C7.13207 7.02317 6.88466 7.39937 6.74953 7.82031C6.61444 8.2027 6.54346 8.60473 6.53951 9.01025C6.53951 10.0103 6.5395 11.0703 6.4695 12.1003C6.4695 12.7203 6.4695 13.3502 6.4695 13.9702C6.45505 14.6394 6.49855 15.3085 6.5995 15.9702C6.67246 16.4685 6.89364 16.9335 7.23427 17.3044C7.5749 17.6754 8.01925 17.9352 8.50954 18.0503C8.96655 18.1681 9.43768 18.2219 9.9095 18.2102H15.2195C15.6087 18.2083 15.9969 18.1716 16.3795 18.1003C16.882 18.0325 17.3518 17.8133 17.7269 17.4722C18.1019 17.131 18.3644 16.6839 18.4795 16.1902C18.5924 15.7221 18.6462 15.2417 18.6395 14.7603C18.6395 13.0203 18.6395 11.2703 18.6395 9.53027C18.6435 9.07082 18.6033 8.61193 18.5195 8.16016ZM12.5195 15.8901C11.7669 15.8822 11.0334 15.6516 10.4118 15.2273C9.79007 14.803 9.30803 14.2041 9.02638 13.5061C8.74474 12.8081 8.67612 12.0424 8.82924 11.3054C8.98236 10.5685 9.35034 9.89327 9.88674 9.36523C10.4231 8.8372 11.1039 8.47991 11.8432 8.33838C12.5824 8.19685 13.347 8.2775 14.0405 8.57007C14.734 8.86264 15.3253 9.35415 15.7398 9.98242C16.1543 10.6107 16.3734 11.3477 16.3695 12.1003C16.3642 13.1091 15.9591 14.0744 15.243 14.7849C14.5269 15.4954 13.5583 15.8928 12.5495 15.8901H12.5195ZM16.5195 9.01025C16.3435 9.01025 16.1714 8.95815 16.025 8.86035C15.8787 8.76256 15.7646 8.62356 15.6973 8.46094C15.6299 8.29831 15.6123 8.11918 15.6466 7.94653C15.681 7.77389 15.7657 7.61544 15.8902 7.49097C16.0147 7.3665 16.1733 7.28166 16.3459 7.24731C16.5185 7.21297 16.6975 7.23073 16.8601 7.2981C17.0228 7.36546 17.1617 7.47937 17.2595 7.62573C17.3573 7.77209 17.4095 7.94434 17.4095 8.12036C17.4046 8.34881 17.3131 8.5668 17.1534 8.73022C16.9937 8.89365 16.7778 8.99014 16.5495 9.00024L16.5195 9.01025Z" fill="#8080F0"/>
<path d="M12.5895 0.339844C10.1864 0.339844 7.83736 1.05239 5.8393 2.38745C3.84124 3.72251 2.28393 5.61997 1.36432 7.84009C0.444719 10.0602 0.204107 12.5032 0.672917 14.8601C1.14173 17.217 2.2989 19.3818 3.99811 21.0811C5.69732 22.7803 7.86225 23.9374 10.2191 24.4062C12.576 24.8751 15.019 24.6344 17.2391 23.7148C19.4592 22.7952 21.3568 21.238 22.6918 19.24C24.0269 17.2419 24.7394 14.8928 24.7394 12.4897C24.7394 9.26737 23.4594 6.177 21.1808 3.89844C18.9022 1.61987 15.8119 0.339844 12.5895 0.339844ZM19.9995 14.2297C20.0183 14.9272 19.9613 15.6247 19.8295 16.3098C19.6822 17.0766 19.3046 17.7802 18.7472 18.3269C18.1898 18.8736 17.479 19.2375 16.7095 19.3699C16.0499 19.4901 15.3798 19.5436 14.7095 19.5298C13.9895 19.5298 13.2795 19.5298 12.5595 19.5298C11.8395 19.5298 11.1195 19.5298 10.3995 19.5298C9.70831 19.5448 9.01756 19.4846 8.33948 19.3499C7.58785 19.1937 6.90024 18.8157 6.36548 18.2649C5.83073 17.7141 5.47337 17.0157 5.33948 16.2598C5.22925 15.7135 5.17893 15.157 5.18946 14.5999C5.18946 12.9399 5.18946 11.2732 5.18946 9.59985C5.16793 8.92553 5.24541 8.25169 5.41944 7.59985C5.60292 6.89792 5.98252 6.26264 6.5138 5.76855C7.04507 5.27447 7.70606 4.94197 8.41944 4.80981C8.97557 4.69714 9.54205 4.64335 10.1094 4.64966C11.7494 4.64966 13.3895 4.64966 15.0295 4.64966C15.683 4.63769 16.3352 4.71187 16.9694 4.86987C17.6924 5.04596 18.3481 5.4293 18.8562 5.9729C19.3643 6.5165 19.7026 7.19652 19.8295 7.92969C19.9519 8.58901 20.0055 9.25928 19.9894 9.92969C19.9994 11.3697 19.9995 12.7897 19.9995 14.1997V14.2297Z" fill="#8080F0"/>
</svg>
