<svg width="43" height="79" viewBox="0 0 43 79" fill="none" xmlns="http://www.w3.org/2000/svg">
<path d="M2.14294 0C2.43076 -0.000924801 2.71596 0.0551934 2.98199 0.165039C3.24803 0.274885 3.48967 0.43642 3.69299 0.640137L42.293 39.24L42.163 39.3701L3.92297 77.6501C3.72008 77.853 3.4792 78.014 3.21411 78.1238C2.94902 78.2336 2.66492 78.29 2.37799 78.29C2.09106 78.29 1.8069 78.2336 1.54181 78.1238C1.27672 78.014 1.03584 77.853 0.832947 77.6501C0.630054 77.4473 0.469118 77.2063 0.359314 76.9412C0.249509 76.6761 0.192993 76.3919 0.192993 76.105C0.192993 75.818 0.249509 75.5341 0.359314 75.269C0.469118 75.004 0.630054 74.763 0.832947 74.5601L36.1429 39.24L0.642944 3.73999C0.336686 3.4343 0.127906 3.04487 0.0428467 2.62061C-0.0422131 2.19634 0.00028497 1.75632 0.165039 1.3562C0.329793 0.956084 0.609364 0.613675 0.968506 0.372314C1.32765 0.130954 1.75028 0.00140577 2.18298 0H2.14294ZM41.763 39.24L3.43298 0.910156C3.08809 0.577157 2.62736 0.390869 2.14795 0.390869C1.66853 0.390869 1.20787 0.577157 0.862976 0.910156C0.525882 1.25089 0.336792 1.71088 0.336792 2.19019C0.336792 2.66949 0.525882 3.12948 0.862976 3.47021L36.633 39.24L36.503 39.3701L1.05298 74.8201C0.713501 75.1609 0.523293 75.6225 0.524231 76.1035C0.525169 76.5845 0.71718 77.0455 1.05798 77.385C1.39879 77.7245 1.86046 77.9148 2.34149 77.9138C2.82252 77.9129 3.28351 77.7209 3.62299 77.3801L41.763 39.24Z" fill="black"/>
</svg>
