<svg width="43" height="79" viewBox="0 0 43 79" fill="none" xmlns="http://www.w3.org/2000/svg">
<path d="M40.7809 78.3506C40.4931 78.3515 40.2079 78.2954 39.9418 78.1855C39.6758 78.0757 39.4342 77.9142 39.2308 77.7104L0.630859 39.1106L0.760864 38.9805L39.0009 0.700439C39.2037 0.497547 39.4446 0.336611 39.7097 0.226807C39.9748 0.117002 40.2589 0.0605469 40.5458 0.0605469C40.8328 0.0605469 41.1169 0.117002 41.382 0.226807C41.6471 0.336611 41.888 0.497547 42.0909 0.700439C42.2938 0.903332 42.4547 1.14433 42.5645 1.40942C42.6743 1.67452 42.7308 1.95867 42.7308 2.24561C42.7308 2.53254 42.6743 2.81645 42.5645 3.08154C42.4547 3.34663 42.2938 3.58764 42.0909 3.79053L6.78088 39.1106L42.2809 74.6106C42.5871 74.9163 42.7959 75.3057 42.881 75.73C42.966 76.1543 42.9235 76.5943 42.7588 76.9944C42.594 77.3945 42.3145 77.7369 41.9553 77.9783C41.5962 78.2196 41.1736 78.3492 40.7408 78.3506H40.7809ZM1.16083 39.1106L39.4908 77.4404C39.8357 77.7734 40.2965 77.9597 40.7759 77.9597C41.2553 77.9597 41.716 77.7734 42.0609 77.4404C42.3979 77.0997 42.587 76.6397 42.587 76.1604C42.587 75.6811 42.3979 75.2211 42.0609 74.8804L6.29083 39.1106L6.42084 38.9805L41.8708 3.53052C42.2103 3.18971 42.4005 2.7281 42.3996 2.24707C42.3987 1.76604 42.2066 1.30505 41.8658 0.965576C41.525 0.626099 41.0634 0.43583 40.5823 0.436768C40.1013 0.437705 39.6403 0.629656 39.3008 0.970459L1.16083 39.1106Z" fill="black"/>
</svg>
