<svg width="26" height="25" viewBox="0 0 26 25" fill="none" xmlns="http://www.w3.org/2000/svg">
<path d="M13.1209 0.339848C10.7175 0.33787 8.36742 1.04872 6.36805 2.38257C4.36868 3.71643 2.80982 5.61331 1.88868 7.83326C0.967541 10.0532 0.725503 12.4965 1.19318 14.854C1.66086 17.2115 2.81725 19.3774 4.51606 21.0776C6.21487 22.7778 8.37974 23.9359 10.7369 24.4055C13.094 24.8751 15.5375 24.6351 17.7582 23.7158C19.9789 22.7965 21.8771 21.2392 23.2126 19.241C24.5481 17.2427 25.2609 14.8932 25.2609 12.4897C25.2609 9.2691 23.9822 6.18014 21.7058 3.90186C19.4294 1.62358 16.3416 0.342499 13.1209 0.339848ZM21.4009 7.39966C20.9764 8.02407 20.4489 8.57197 19.841 9.01978C19.8106 9.03835 19.7861 9.0651 19.7701 9.09693C19.7542 9.12875 19.7476 9.16429 19.7509 9.19971C19.7863 10.0335 19.7055 10.8681 19.5109 11.6797C19.1415 13.2837 18.3863 14.7736 17.3109 16.0198C16.4594 17.0245 15.3978 17.83 14.2009 18.3796C12.3177 19.2138 10.2268 19.4614 8.20094 19.0898C7.02318 18.8555 5.89808 18.4081 4.88093 17.7698C6.6679 17.9723 8.46306 17.4662 9.88093 16.3599C9.87333 16.3555 9.86468 16.353 9.8559 16.353C9.84713 16.353 9.83854 16.3555 9.83094 16.3599C9.51487 16.3439 9.20224 16.2866 8.90095 16.1897C8.39842 16.025 7.94086 15.7461 7.56434 15.3748C7.18781 15.0034 6.90254 14.55 6.7309 14.0498C6.7309 13.9898 6.73095 13.9797 6.78095 13.9897C7.18752 14.0648 7.60436 14.0648 8.01093 13.9897C8.08419 13.9837 8.15551 13.9633 8.22089 13.9297C7.4467 13.7655 6.75346 13.3379 6.25928 12.7197C5.76511 12.1016 5.50065 11.3311 5.51093 10.5398C5.97412 10.7969 6.49154 10.9407 7.02094 10.9597C6.31208 10.4665 5.81533 9.72407 5.62995 8.88062C5.44458 8.03717 5.58423 7.15469 6.02094 6.40967C6.87509 7.44356 7.93292 8.29065 9.12861 8.89795C10.3243 9.50526 11.6322 9.85981 12.9709 9.9397C13.0309 9.9397 13.0409 9.93988 13.0209 9.86988C12.936 9.42052 12.936 8.95912 13.0209 8.50977C13.1575 7.83399 13.4935 7.21473 13.9854 6.73169C14.4774 6.24866 15.1028 5.92403 15.781 5.79981L16.1309 5.73975H16.6809C17.4984 5.80015 18.266 6.15554 18.841 6.73975C18.8562 6.74853 18.8734 6.75318 18.8909 6.75318C18.9085 6.75318 18.9257 6.74853 18.9409 6.73975C19.6143 6.6055 20.2622 6.36592 20.8609 6.02979L21.0409 5.9397C20.7945 6.71812 20.2764 7.382 19.5809 7.80982C20.1853 7.74042 20.7774 7.58907 21.341 7.35987C21.3909 7.35987 21.4309 7.29981 21.4909 7.29981L21.4009 7.39966Z" fill="#8080F0"/>
</svg>
